<svg xmlns="http://www.w3.org/2000/svg" version="1.1" xmlns:xlink="http://www.w3.org/1999/xlink" xmlns:svgjs="http://svgjs.com/svgjs" width="1440" height="1000" preserveAspectRatio="none" viewBox="0 0 1440 1000"><g mask="url(&quot;#SvgjsMask1038&quot;)" fill="none"><g mask="url(&quot;#SvgjsMask1039&quot;)"><path d="M202.5 580.5L202.5 67.5" stroke-width="4.5" stroke="rgba(225, 225, 225, 1)"></path><path d="M195.75 580.5 a6.75 6.75 0 1 0 13.5 0 a6.75 6.75 0 1 0 -13.5 0zM195.75 67.5 a6.75 6.75 0 1 0 13.5 0 a6.75 6.75 0 1 0 -13.5 0z" fill="rgba(225, 225, 225, 1)"></path><path d="M1201.5 445.5L1066.5 580.5L1066.5 958.5" stroke-width="4.5" stroke="rgba(225, 225, 225, 1)"></path><path d="M1194.75 445.5 a6.75 6.75 0 1 0 13.5 0 a6.75 6.75 0 1 0 -13.5 0zM1059.75 958.5 a6.75 6.75 0 1 0 13.5 0 a6.75 6.75 0 1 0 -13.5 0z" fill="rgba(225, 225, 225, 1)"></path><path d="M418.5 580.5L418.5 661.5L499.5 742.5L499.5 769.5L418.5 850.5L175.5 850.5" stroke-width="4.5" stroke="rgba(225, 225, 225, 1)"></path><path d="M411.75 580.5 a6.75 6.75 0 1 0 13.5 0 a6.75 6.75 0 1 0 -13.5 0zM168.75 850.5 a6.75 6.75 0 1 0 13.5 0 a6.75 6.75 0 1 0 -13.5 0z" fill="rgba(225, 225, 225, 1)"></path><path d="M634.5 850.5L445.5 661.5L445.5 553.5L229.5 337.5" stroke-width="4.5" stroke="rgba(225, 225, 225, 1)"></path><path d="M627.75 850.5 a6.75 6.75 0 1 0 13.5 0 a6.75 6.75 0 1 0 -13.5 0zM222.75 337.5 a6.75 6.75 0 1 0 13.5 0 a6.75 6.75 0 1 0 -13.5 0z" fill="rgba(225, 225, 225, 1)"></path><path d="M1201.5 850.5L1363.5 1012.5L1444.5 1012.5" stroke-width="4.5" stroke="rgba(225, 225, 225, 1)"></path><path d="M1194.75 850.5 a6.75 6.75 0 1 0 13.5 0 a6.75 6.75 0 1 0 -13.5 0zM1437.75 1012.5 a6.75 6.75 0 1 0 13.5 0 a6.75 6.75 0 1 0 -13.5 0z" fill="rgba(225, 225, 225, 1)"></path><path d="M1390.5 13.5L877.5 13.5" stroke-width="4.5" stroke="rgba(225, 225, 225, 1)"></path><path d="M1383.75 13.5 a6.75 6.75 0 1 0 13.5 0 a6.75 6.75 0 1 0 -13.5 0zM870.75 13.5 a6.75 6.75 0 1 0 13.5 0 a6.75 6.75 0 1 0 -13.5 0z" fill="rgba(225, 225, 225, 1)"></path><path d="M1039.5 40.5L958.5 40.5L715.5 283.5L688.5 283.5L526.5 121.5" stroke-width="4.5" stroke="rgba(225, 225, 225, 1)"></path><path d="M1032.75 40.5 a6.75 6.75 0 1 0 13.5 0 a6.75 6.75 0 1 0 -13.5 0zM519.75 121.5 a6.75 6.75 0 1 0 13.5 0 a6.75 6.75 0 1 0 -13.5 0z" fill="rgba(225, 225, 225, 1)"></path><path d="M148.5 499.5L175.5 472.5L175.5 94.5L94.5 13.5L67.5 13.5" stroke-width="4.5" stroke="rgba(225, 225, 225, 1)"></path><path d="M141.75 499.5 a6.75 6.75 0 1 0 13.5 0 a6.75 6.75 0 1 0 -13.5 0zM60.75 13.5 a6.75 6.75 0 1 0 13.5 0 a6.75 6.75 0 1 0 -13.5 0z" fill="rgba(225, 225, 225, 1)"></path><path d="M1147.5 418.5L1417.5 418.5L1444.5 391.5L1444.5 175.5" stroke-width="4.5" stroke="rgba(225, 225, 225, 1)"></path><path d="M1140.75 418.5 a6.75 6.75 0 1 0 13.5 0 a6.75 6.75 0 1 0 -13.5 0zM1437.75 175.5 a6.75 6.75 0 1 0 13.5 0 a6.75 6.75 0 1 0 -13.5 0z" fill="rgba(225, 225, 225, 1)"></path><path d="M445.5 310.5L499.5 256.5L634.5 256.5L769.5 391.5L850.5 391.5L958.5 283.5" stroke-width="4.5" stroke="rgba(225, 225, 225, 1)"></path><path d="M438.75 310.5 a6.75 6.75 0 1 0 13.5 0 a6.75 6.75 0 1 0 -13.5 0zM951.75 283.5 a6.75 6.75 0 1 0 13.5 0 a6.75 6.75 0 1 0 -13.5 0z" fill="rgba(225, 225, 225, 1)"></path><path d="M391.5 256.5L499.5 148.5L499.5 40.5L472.5 13.5L202.5 13.5" stroke-width="4.5" stroke="rgba(225, 225, 225, 1)"></path><path d="M384.75 256.5 a6.75 6.75 0 1 0 13.5 0 a6.75 6.75 0 1 0 -13.5 0zM195.75 13.5 a6.75 6.75 0 1 0 13.5 0 a6.75 6.75 0 1 0 -13.5 0z" fill="rgba(225, 225, 225, 1)"></path><path d="M1012.5 310.5L580.5 742.5L553.5 742.5L499.5 688.5" stroke-width="4.5" stroke="rgba(225, 225, 225, 1)"></path><path d="M1005.75 310.5 a6.75 6.75 0 1 0 13.5 0 a6.75 6.75 0 1 0 -13.5 0zM492.75 688.5 a6.75 6.75 0 1 0 13.5 0 a6.75 6.75 0 1 0 -13.5 0z" fill="rgba(225, 225, 225, 1)"></path><path d="M1390.5 958.5L1444.5 958.5" stroke-width="4.5" stroke="rgba(225, 225, 225, 1)"></path><path d="M1383.75 958.5 a6.75 6.75 0 1 0 13.5 0 a6.75 6.75 0 1 0 -13.5 0zM1437.75 958.5 a6.75 6.75 0 1 0 13.5 0 a6.75 6.75 0 1 0 -13.5 0z" fill="rgba(225, 225, 225, 1)"></path><path d="M1336.5 1012.5L958.5 1012.5L823.5 877.5" stroke-width="4.5" stroke="rgba(225, 225, 225, 1)"></path><path d="M1329.75 1012.5 a6.75 6.75 0 1 0 13.5 0 a6.75 6.75 0 1 0 -13.5 0zM816.75 877.5 a6.75 6.75 0 1 0 13.5 0 a6.75 6.75 0 1 0 -13.5 0z" fill="rgba(225, 225, 225, 1)"></path><path d="M1174.5 904.5L1093.5 904.5" stroke-width="4.5" stroke="rgba(225, 225, 225, 1)"></path><path d="M1167.75 904.5 a6.75 6.75 0 1 0 13.5 0 a6.75 6.75 0 1 0 -13.5 0zM1086.75 904.5 a6.75 6.75 0 1 0 13.5 0 a6.75 6.75 0 1 0 -13.5 0z" fill="rgba(225, 225, 225, 1)"></path><path d="M283.5 499.5L229.5 499.5" stroke-width="4.5" stroke="rgba(225, 225, 225, 1)"></path><path d="M276.75 499.5 a6.75 6.75 0 1 0 13.5 0 a6.75 6.75 0 1 0 -13.5 0zM222.75 499.5 a6.75 6.75 0 1 0 13.5 0 a6.75 6.75 0 1 0 -13.5 0z" fill="rgba(225, 225, 225, 1)"></path><path d="M499.5 877.5L364.5 1012.5L94.5 1012.5L13.5 931.5L13.5 904.5" stroke-width="4.5" stroke="rgba(225, 225, 225, 1)"></path><path d="M492.75 877.5 a6.75 6.75 0 1 0 13.5 0 a6.75 6.75 0 1 0 -13.5 0zM6.75 904.5 a6.75 6.75 0 1 0 13.5 0 a6.75 6.75 0 1 0 -13.5 0z" fill="rgba(225, 225, 225, 1)"></path><path d="M175.5 958.5L202.5 958.5L256.5 904.5L256.5 877.5" stroke-width="4.5" stroke="rgba(225, 225, 225, 1)"></path><path d="M168.75 958.5 a6.75 6.75 0 1 0 13.5 0 a6.75 6.75 0 1 0 -13.5 0zM249.75 877.5 a6.75 6.75 0 1 0 13.5 0 a6.75 6.75 0 1 0 -13.5 0z" fill="rgba(225, 225, 225, 1)"></path><path d="M67.5 40.5L40.5 13.5L13.5 13.5" stroke-width="4.5" stroke="rgba(225, 225, 225, 1)"></path><path d="M60.75 40.5 a6.75 6.75 0 1 0 13.5 0 a6.75 6.75 0 1 0 -13.5 0zM6.75 13.5 a6.75 6.75 0 1 0 13.5 0 a6.75 6.75 0 1 0 -13.5 0z" fill="rgba(225, 225, 225, 1)"></path><path d="M796.5 958.5L823.5 931.5L823.5 904.5L634.5 715.5" stroke-width="4.5" stroke="rgba(225, 225, 225, 1)"></path><path d="M789.75 958.5 a6.75 6.75 0 1 0 13.5 0 a6.75 6.75 0 1 0 -13.5 0zM627.75 715.5 a6.75 6.75 0 1 0 13.5 0 a6.75 6.75 0 1 0 -13.5 0z" fill="rgba(225, 225, 225, 1)"></path><path d="M688.5 877.5L688.5 796.5L634.5 742.5L607.5 742.5L580.5 769.5" stroke-width="4.5" stroke="rgba(225, 225, 225, 1)"></path><path d="M681.75 877.5 a6.75 6.75 0 1 0 13.5 0 a6.75 6.75 0 1 0 -13.5 0zM573.75 769.5 a6.75 6.75 0 1 0 13.5 0 a6.75 6.75 0 1 0 -13.5 0z" fill="rgba(225, 225, 225, 1)"></path><path d="M850.5 229.5L958.5 121.5L958.5 67.5" stroke-width="4.5" stroke="rgba(225, 225, 225, 1)"></path><path d="M843.75 229.5 a6.75 6.75 0 1 0 13.5 0 a6.75 6.75 0 1 0 -13.5 0zM951.75 67.5 a6.75 6.75 0 1 0 13.5 0 a6.75 6.75 0 1 0 -13.5 0z" fill="rgba(225, 225, 225, 1)"></path><path d="M499.5 391.5L742.5 391.5L823.5 472.5" stroke-width="4.5" stroke="rgba(225, 225, 225, 1)"></path><path d="M492.75 391.5 a6.75 6.75 0 1 0 13.5 0 a6.75 6.75 0 1 0 -13.5 0zM816.75 472.5 a6.75 6.75 0 1 0 13.5 0 a6.75 6.75 0 1 0 -13.5 0z" fill="rgba(225, 225, 225, 1)"></path><path d="M985.5 175.5L985.5 202.5L823.5 364.5L769.5 364.5L715.5 310.5" stroke-width="4.5" stroke="rgba(225, 225, 225, 1)"></path><path d="M978.75 175.5 a6.75 6.75 0 1 0 13.5 0 a6.75 6.75 0 1 0 -13.5 0zM708.75 310.5 a6.75 6.75 0 1 0 13.5 0 a6.75 6.75 0 1 0 -13.5 0z" fill="rgba(225, 225, 225, 1)"></path><path d="M1120.5 877.5L1120.5 553.5L1228.5 445.5L1309.5 445.5" stroke-width="4.5" stroke="rgba(225, 225, 225, 1)"></path><path d="M1113.75 877.5 a6.75 6.75 0 1 0 13.5 0 a6.75 6.75 0 1 0 -13.5 0zM1302.75 445.5 a6.75 6.75 0 1 0 13.5 0 a6.75 6.75 0 1 0 -13.5 0z" fill="rgba(225, 225, 225, 1)"></path><path d="M445.5 229.5L607.5 229.5" stroke-width="4.5" stroke="rgba(225, 225, 225, 1)"></path><path d="M438.75 229.5 a6.75 6.75 0 1 0 13.5 0 a6.75 6.75 0 1 0 -13.5 0zM600.75 229.5 a6.75 6.75 0 1 0 13.5 0 a6.75 6.75 0 1 0 -13.5 0z" fill="rgba(225, 225, 225, 1)"></path><path d="M1039.5 931.5L985.5 985.5L958.5 985.5L661.5 688.5" stroke-width="4.5" stroke="rgba(225, 225, 225, 1)"></path><path d="M1032.75 931.5 a6.75 6.75 0 1 0 13.5 0 a6.75 6.75 0 1 0 -13.5 0zM654.75 688.5 a6.75 6.75 0 1 0 13.5 0 a6.75 6.75 0 1 0 -13.5 0z" fill="rgba(225, 225, 225, 1)"></path><path d="M1174.5 256.5L1174.5 337.5L1201.5 364.5L1417.5 364.5" stroke-width="4.5" stroke="rgba(225, 225, 225, 1)"></path><path d="M1167.75 256.5 a6.75 6.75 0 1 0 13.5 0 a6.75 6.75 0 1 0 -13.5 0zM1410.75 364.5 a6.75 6.75 0 1 0 13.5 0 a6.75 6.75 0 1 0 -13.5 0z" fill="rgba(225, 225, 225, 1)"></path><path d="M283.5 688.5L283.5 553.5L337.5 499.5L337.5 472.5L229.5 364.5" stroke-width="4.5" stroke="rgba(225, 225, 225, 1)"></path><path d="M276.75 688.5 a6.75 6.75 0 1 0 13.5 0 a6.75 6.75 0 1 0 -13.5 0zM222.75 364.5 a6.75 6.75 0 1 0 13.5 0 a6.75 6.75 0 1 0 -13.5 0z" fill="rgba(225, 225, 225, 1)"></path><path d="M904.5 472.5L823.5 553.5L823.5 823.5L958.5 958.5L985.5 958.5" stroke-width="4.5" stroke="rgba(225, 225, 225, 1)"></path><path d="M897.75 472.5 a6.75 6.75 0 1 0 13.5 0 a6.75 6.75 0 1 0 -13.5 0zM978.75 958.5 a6.75 6.75 0 1 0 13.5 0 a6.75 6.75 0 1 0 -13.5 0z" fill="rgba(225, 225, 225, 1)"></path><path d="M337.5 175.5L337.5 40.5" stroke-width="4.5" stroke="rgba(225, 225, 225, 1)"></path><path d="M330.75 175.5 a6.75 6.75 0 1 0 13.5 0 a6.75 6.75 0 1 0 -13.5 0zM330.75 40.5 a6.75 6.75 0 1 0 13.5 0 a6.75 6.75 0 1 0 -13.5 0z" fill="rgba(225, 225, 225, 1)"></path><path d="M985.5 445.5L1039.5 445.5L1093.5 499.5L1120.5 499.5L1174.5 445.5" stroke-width="4.5" stroke="rgba(225, 225, 225, 1)"></path><path d="M978.75 445.5 a6.75 6.75 0 1 0 13.5 0 a6.75 6.75 0 1 0 -13.5 0zM1167.75 445.5 a6.75 6.75 0 1 0 13.5 0 a6.75 6.75 0 1 0 -13.5 0z" fill="rgba(225, 225, 225, 1)"></path><path d="M553.5 337.5L499.5 283.5" stroke-width="4.5" stroke="rgba(225, 225, 225, 1)"></path><path d="M546.75 337.5 a6.75 6.75 0 1 0 13.5 0 a6.75 6.75 0 1 0 -13.5 0zM492.75 283.5 a6.75 6.75 0 1 0 13.5 0 a6.75 6.75 0 1 0 -13.5 0z" fill="rgba(225, 225, 225, 1)"></path><path d="M337.5 742.5L337.5 823.5" stroke-width="4.5" stroke="rgba(225, 225, 225, 1)"></path><path d="M330.75 742.5 a6.75 6.75 0 1 0 13.5 0 a6.75 6.75 0 1 0 -13.5 0zM330.75 823.5 a6.75 6.75 0 1 0 13.5 0 a6.75 6.75 0 1 0 -13.5 0z" fill="rgba(225, 225, 225, 1)"></path><path d="M1066.5 121.5L1147.5 40.5L1390.5 40.5L1417.5 13.5L1444.5 13.5" stroke-width="4.5" stroke="rgba(225, 225, 225, 1)"></path><path d="M1059.75 121.5 a6.75 6.75 0 1 0 13.5 0 a6.75 6.75 0 1 0 -13.5 0zM1437.75 13.5 a6.75 6.75 0 1 0 13.5 0 a6.75 6.75 0 1 0 -13.5 0z" fill="rgba(225, 225, 225, 1)"></path><path d="M13.5 823.5L310.5 823.5" stroke-width="4.5" stroke="rgba(225, 225, 225, 1)"></path><path d="M6.75 823.5 a6.75 6.75 0 1 0 13.5 0 a6.75 6.75 0 1 0 -13.5 0zM303.75 823.5 a6.75 6.75 0 1 0 13.5 0 a6.75 6.75 0 1 0 -13.5 0z" fill="rgba(225, 225, 225, 1)"></path><path d="M1255.5 310.5L1255.5 202.5L1309.5 148.5L1309.5 94.5L1336.5 67.5L1444.5 67.5" stroke-width="4.5" stroke="rgba(225, 225, 225, 1)"></path><path d="M1248.75 310.5 a6.75 6.75 0 1 0 13.5 0 a6.75 6.75 0 1 0 -13.5 0zM1437.75 67.5 a6.75 6.75 0 1 0 13.5 0 a6.75 6.75 0 1 0 -13.5 0z" fill="rgba(225, 225, 225, 1)"></path><path d="M1066.5 418.5L1066.5 445.5L1093.5 472.5L1120.5 472.5L1147.5 445.5" stroke-width="4.5" stroke="rgba(225, 225, 225, 1)"></path><path d="M1059.75 418.5 a6.75 6.75 0 1 0 13.5 0 a6.75 6.75 0 1 0 -13.5 0zM1140.75 445.5 a6.75 6.75 0 1 0 13.5 0 a6.75 6.75 0 1 0 -13.5 0z" fill="rgba(225, 225, 225, 1)"></path><path d="M1120.5 94.5L985.5 229.5" stroke-width="4.5" stroke="rgba(225, 225, 225, 1)"></path><path d="M1113.75 94.5 a6.75 6.75 0 1 0 13.5 0 a6.75 6.75 0 1 0 -13.5 0zM978.75 229.5 a6.75 6.75 0 1 0 13.5 0 a6.75 6.75 0 1 0 -13.5 0z" fill="rgba(225, 225, 225, 1)"></path><path d="M40.5 715.5L202.5 715.5L229.5 742.5L229.5 796.5" stroke-width="4.5" stroke="rgba(225, 225, 225, 1)"></path><path d="M33.75 715.5 a6.75 6.75 0 1 0 13.5 0 a6.75 6.75 0 1 0 -13.5 0zM222.75 796.5 a6.75 6.75 0 1 0 13.5 0 a6.75 6.75 0 1 0 -13.5 0z" fill="rgba(225, 225, 225, 1)"></path><path d="M1228.5 202.5L1228.5 337.5" stroke-width="4.5" stroke="rgba(225, 225, 225, 1)"></path><path d="M1221.75 202.5 a6.75 6.75 0 1 0 13.5 0 a6.75 6.75 0 1 0 -13.5 0zM1221.75 337.5 a6.75 6.75 0 1 0 13.5 0 a6.75 6.75 0 1 0 -13.5 0z" fill="rgba(225, 225, 225, 1)"></path><path d="M985.5 499.5L985.5 607.5L850.5 742.5L850.5 823.5L958.5 931.5L1012.5 931.5L1039.5 904.5" stroke-width="4.5" stroke="rgba(225, 225, 225, 1)"></path><path d="M978.75 499.5 a6.75 6.75 0 1 0 13.5 0 a6.75 6.75 0 1 0 -13.5 0zM1032.75 904.5 a6.75 6.75 0 1 0 13.5 0 a6.75 6.75 0 1 0 -13.5 0z" fill="rgba(225, 225, 225, 1)"></path><path d="M661.5 823.5L661.5 796.5L634.5 769.5L607.5 769.5" stroke-width="4.5" stroke="rgba(225, 225, 225, 1)"></path><path d="M654.75 823.5 a6.75 6.75 0 1 0 13.5 0 a6.75 6.75 0 1 0 -13.5 0zM600.75 769.5 a6.75 6.75 0 1 0 13.5 0 a6.75 6.75 0 1 0 -13.5 0z" fill="rgba(225, 225, 225, 1)"></path><path d="M904.5 823.5L1039.5 823.5" stroke-width="4.5" stroke="rgba(225, 225, 225, 1)"></path><path d="M897.75 823.5 a6.75 6.75 0 1 0 13.5 0 a6.75 6.75 0 1 0 -13.5 0zM1032.75 823.5 a6.75 6.75 0 1 0 13.5 0 a6.75 6.75 0 1 0 -13.5 0z" fill="rgba(225, 225, 225, 1)"></path><path d="M94.5 175.5L94.5 256.5L121.5 283.5L121.5 661.5L94.5 688.5" stroke-width="4.5" stroke="rgba(225, 225, 225, 1)"></path><path d="M87.75 175.5 a6.75 6.75 0 1 0 13.5 0 a6.75 6.75 0 1 0 -13.5 0zM87.75 688.5 a6.75 6.75 0 1 0 13.5 0 a6.75 6.75 0 1 0 -13.5 0z" fill="rgba(225, 225, 225, 1)"></path><path d="M877.5 661.5L904.5 661.5L958.5 607.5L958.5 391.5L1174.5 175.5" stroke-width="4.5" stroke="rgba(225, 225, 225, 1)"></path><path d="M870.75 661.5 a6.75 6.75 0 1 0 13.5 0 a6.75 6.75 0 1 0 -13.5 0zM1167.75 175.5 a6.75 6.75 0 1 0 13.5 0 a6.75 6.75 0 1 0 -13.5 0z" fill="rgba(225, 225, 225, 1)"></path><path d="M904.5 121.5L742.5 283.5L742.5 310.5L769.5 337.5L823.5 337.5L958.5 202.5L958.5 148.5L1012.5 94.5" stroke-width="4.5" stroke="rgba(225, 225, 225, 1)"></path><path d="M897.75 121.5 a6.75 6.75 0 1 0 13.5 0 a6.75 6.75 0 1 0 -13.5 0zM1005.75 94.5 a6.75 6.75 0 1 0 13.5 0 a6.75 6.75 0 1 0 -13.5 0z" fill="rgba(225, 225, 225, 1)"></path><path d="M472.5 67.5L472.5 148.5L283.5 337.5L283.5 364.5L499.5 580.5" stroke-width="4.5" stroke="rgba(225, 225, 225, 1)"></path><path d="M465.75 67.5 a6.75 6.75 0 1 0 13.5 0 a6.75 6.75 0 1 0 -13.5 0zM492.75 580.5 a6.75 6.75 0 1 0 13.5 0 a6.75 6.75 0 1 0 -13.5 0z" fill="rgba(225, 225, 225, 1)"></path><path d="M13.5 472.5L94.5 553.5L94.5 661.5L67.5 688.5L13.5 688.5" stroke-width="4.5" stroke="rgba(225, 225, 225, 1)"></path><path d="M6.75 472.5 a6.75 6.75 0 1 0 13.5 0 a6.75 6.75 0 1 0 -13.5 0zM6.75 688.5 a6.75 6.75 0 1 0 13.5 0 a6.75 6.75 0 1 0 -13.5 0z" fill="rgba(225, 225, 225, 1)"></path><path d="M391.5 283.5L418.5 256.5L472.5 256.5" stroke-width="4.5" stroke="rgba(225, 225, 225, 1)"></path><path d="M384.75 283.5 a6.75 6.75 0 1 0 13.5 0 a6.75 6.75 0 1 0 -13.5 0zM465.75 256.5 a6.75 6.75 0 1 0 13.5 0 a6.75 6.75 0 1 0 -13.5 0z" fill="rgba(225, 225, 225, 1)"></path><path d="M1228.5 769.5L1201.5 769.5L1147.5 823.5L1147.5 877.5" stroke-width="4.5" stroke="rgba(225, 225, 225, 1)"></path><path d="M1221.75 769.5 a6.75 6.75 0 1 0 13.5 0 a6.75 6.75 0 1 0 -13.5 0zM1140.75 877.5 a6.75 6.75 0 1 0 13.5 0 a6.75 6.75 0 1 0 -13.5 0z" fill="rgba(225, 225, 225, 1)"></path><path d="M175.5 580.5L175.5 499.5" stroke-width="4.5" stroke="rgba(225, 225, 225, 1)"></path><path d="M168.75 580.5 a6.75 6.75 0 1 0 13.5 0 a6.75 6.75 0 1 0 -13.5 0zM168.75 499.5 a6.75 6.75 0 1 0 13.5 0 a6.75 6.75 0 1 0 -13.5 0z" fill="rgba(225, 225, 225, 1)"></path><path d="M337.5 661.5L337.5 715.5L418.5 796.5L418.5 823.5" stroke-width="4.5" stroke="rgba(225, 225, 225, 1)"></path><path d="M330.75 661.5 a6.75 6.75 0 1 0 13.5 0 a6.75 6.75 0 1 0 -13.5 0zM411.75 823.5 a6.75 6.75 0 1 0 13.5 0 a6.75 6.75 0 1 0 -13.5 0z" fill="rgba(225, 225, 225, 1)"></path><path d="M40.5 553.5L13.5 580.5L13.5 661.5" stroke-width="4.5" stroke="rgba(225, 225, 225, 1)"></path><path d="M33.75 553.5 a6.75 6.75 0 1 0 13.5 0 a6.75 6.75 0 1 0 -13.5 0zM6.75 661.5 a6.75 6.75 0 1 0 13.5 0 a6.75 6.75 0 1 0 -13.5 0z" fill="rgba(225, 225, 225, 1)"></path><path d="M1417.5 580.5L1255.5 580.5L1174.5 661.5L1174.5 769.5L1147.5 796.5" stroke-width="4.5" stroke="rgba(225, 225, 225, 1)"></path><path d="M1410.75 580.5 a6.75 6.75 0 1 0 13.5 0 a6.75 6.75 0 1 0 -13.5 0zM1140.75 796.5 a6.75 6.75 0 1 0 13.5 0 a6.75 6.75 0 1 0 -13.5 0z" fill="rgba(225, 225, 225, 1)"></path><path d="M985.5 850.5L904.5 850.5" stroke-width="4.5" stroke="rgba(225, 225, 225, 1)"></path><path d="M978.75 850.5 a6.75 6.75 0 1 0 13.5 0 a6.75 6.75 0 1 0 -13.5 0zM897.75 850.5 a6.75 6.75 0 1 0 13.5 0 a6.75 6.75 0 1 0 -13.5 0z" fill="rgba(225, 225, 225, 1)"></path><path d="M1417.5 94.5L1417.5 337.5" stroke-width="4.5" stroke="rgba(225, 225, 225, 1)"></path><path d="M1410.75 94.5 a6.75 6.75 0 1 0 13.5 0 a6.75 6.75 0 1 0 -13.5 0zM1410.75 337.5 a6.75 6.75 0 1 0 13.5 0 a6.75 6.75 0 1 0 -13.5 0z" fill="rgba(225, 225, 225, 1)"></path><path d="M580.5 499.5L445.5 499.5L310.5 364.5L310.5 337.5L364.5 283.5" stroke-width="4.5" stroke="rgba(225, 225, 225, 1)"></path><path d="M573.75 499.5 a6.75 6.75 0 1 0 13.5 0 a6.75 6.75 0 1 0 -13.5 0zM357.75 283.5 a6.75 6.75 0 1 0 13.5 0 a6.75 6.75 0 1 0 -13.5 0z" fill="rgba(225, 225, 225, 1)"></path><path d="M202.5 607.5L256.5 607.5" stroke-width="4.5" stroke="rgba(225, 225, 225, 1)"></path><path d="M195.75 607.5 a6.75 6.75 0 1 0 13.5 0 a6.75 6.75 0 1 0 -13.5 0zM249.75 607.5 a6.75 6.75 0 1 0 13.5 0 a6.75 6.75 0 1 0 -13.5 0z" fill="rgba(225, 225, 225, 1)"></path><path d="M1228.5 715.5L1228.5 634.5L1255.5 607.5L1444.5 607.5" stroke-width="4.5" stroke="rgba(225, 225, 225, 1)"></path><path d="M1221.75 715.5 a6.75 6.75 0 1 0 13.5 0 a6.75 6.75 0 1 0 -13.5 0zM1437.75 607.5 a6.75 6.75 0 1 0 13.5 0 a6.75 6.75 0 1 0 -13.5 0z" fill="rgba(225, 225, 225, 1)"></path><path d="M1444.5 661.5L1255.5 661.5" stroke-width="4.5" stroke="rgba(225, 225, 225, 1)"></path><path d="M1437.75 661.5 a6.75 6.75 0 1 0 13.5 0 a6.75 6.75 0 1 0 -13.5 0zM1248.75 661.5 a6.75 6.75 0 1 0 13.5 0 a6.75 6.75 0 1 0 -13.5 0z" fill="rgba(225, 225, 225, 1)"></path><path d="M1282.5 472.5L1228.5 472.5L1147.5 553.5L1147.5 769.5" stroke-width="4.5" stroke="rgba(225, 225, 225, 1)"></path><path d="M1275.75 472.5 a6.75 6.75 0 1 0 13.5 0 a6.75 6.75 0 1 0 -13.5 0zM1140.75 769.5 a6.75 6.75 0 1 0 13.5 0 a6.75 6.75 0 1 0 -13.5 0z" fill="rgba(225, 225, 225, 1)"></path><path d="M40.5 229.5L40.5 40.5" stroke-width="4.5" stroke="rgba(225, 225, 225, 1)"></path><path d="M33.75 229.5 a6.75 6.75 0 1 0 13.5 0 a6.75 6.75 0 1 0 -13.5 0zM33.75 40.5 a6.75 6.75 0 1 0 13.5 0 a6.75 6.75 0 1 0 -13.5 0z" fill="rgba(225, 225, 225, 1)"></path><path d="M1336.5 634.5L1444.5 634.5" stroke-width="4.5" stroke="rgba(225, 225, 225, 1)"></path><path d="M1329.75 634.5 a6.75 6.75 0 1 0 13.5 0 a6.75 6.75 0 1 0 -13.5 0zM1437.75 634.5 a6.75 6.75 0 1 0 13.5 0 a6.75 6.75 0 1 0 -13.5 0z" fill="rgba(225, 225, 225, 1)"></path><path d="M958.5 310.5L823.5 445.5" stroke-width="4.5" stroke="rgba(225, 225, 225, 1)"></path><path d="M951.75 310.5 a6.75 6.75 0 1 0 13.5 0 a6.75 6.75 0 1 0 -13.5 0zM816.75 445.5 a6.75 6.75 0 1 0 13.5 0 a6.75 6.75 0 1 0 -13.5 0z" fill="rgba(225, 225, 225, 1)"></path><path d="M229.5 283.5L256.5 310.5L283.5 310.5L445.5 148.5L445.5 40.5" stroke-width="4.5" stroke="rgba(225, 225, 225, 1)"></path><path d="M222.75 283.5 a6.75 6.75 0 1 0 13.5 0 a6.75 6.75 0 1 0 -13.5 0zM438.75 40.5 a6.75 6.75 0 1 0 13.5 0 a6.75 6.75 0 1 0 -13.5 0z" fill="rgba(225, 225, 225, 1)"></path><path d="M580.5 823.5L769.5 1012.5L931.5 1012.5" stroke-width="4.5" stroke="rgba(225, 225, 225, 1)"></path><path d="M573.75 823.5 a6.75 6.75 0 1 0 13.5 0 a6.75 6.75 0 1 0 -13.5 0zM924.75 1012.5 a6.75 6.75 0 1 0 13.5 0 a6.75 6.75 0 1 0 -13.5 0z" fill="rgba(225, 225, 225, 1)"></path><path d="M688.5 499.5L688.5 607.5L661.5 634.5L634.5 634.5L580.5 580.5L580.5 526.5L661.5 445.5L661.5 418.5" stroke-width="4.5" stroke="rgba(225, 225, 225, 1)"></path><path d="M681.75 499.5 a6.75 6.75 0 1 0 13.5 0 a6.75 6.75 0 1 0 -13.5 0zM654.75 418.5 a6.75 6.75 0 1 0 13.5 0 a6.75 6.75 0 1 0 -13.5 0z" fill="rgba(225, 225, 225, 1)"></path><path d="M715.5 445.5L769.5 499.5L796.5 499.5" stroke-width="4.5" stroke="rgba(225, 225, 225, 1)"></path><path d="M708.75 445.5 a6.75 6.75 0 1 0 13.5 0 a6.75 6.75 0 1 0 -13.5 0zM789.75 499.5 a6.75 6.75 0 1 0 13.5 0 a6.75 6.75 0 1 0 -13.5 0z" fill="rgba(225, 225, 225, 1)"></path><path d="M769.5 715.5L796.5 688.5L796.5 607.5L769.5 580.5" stroke-width="4.5" stroke="rgba(225, 225, 225, 1)"></path><path d="M762.75 715.5 a6.75 6.75 0 1 0 13.5 0 a6.75 6.75 0 1 0 -13.5 0zM762.75 580.5 a6.75 6.75 0 1 0 13.5 0 a6.75 6.75 0 1 0 -13.5 0z" fill="rgba(225, 225, 225, 1)"></path><path d="M1012.5 742.5L1012.5 796.5" stroke-width="4.5" stroke="rgba(225, 225, 225, 1)"></path><path d="M1005.75 742.5 a6.75 6.75 0 1 0 13.5 0 a6.75 6.75 0 1 0 -13.5 0zM1005.75 796.5 a6.75 6.75 0 1 0 13.5 0 a6.75 6.75 0 1 0 -13.5 0z" fill="rgba(225, 225, 225, 1)"></path><path d="M256.5 796.5L283.5 796.5L310.5 769.5L310.5 661.5L364.5 607.5L391.5 607.5" stroke-width="4.5" stroke="rgba(225, 225, 225, 1)"></path><path d="M249.75 796.5 a6.75 6.75 0 1 0 13.5 0 a6.75 6.75 0 1 0 -13.5 0zM384.75 607.5 a6.75 6.75 0 1 0 13.5 0 a6.75 6.75 0 1 0 -13.5 0z" fill="rgba(225, 225, 225, 1)"></path><path d="M1201.5 67.5L1147.5 67.5" stroke-width="4.5" stroke="rgba(225, 225, 225, 1)"></path><path d="M1194.75 67.5 a6.75 6.75 0 1 0 13.5 0 a6.75 6.75 0 1 0 -13.5 0zM1140.75 67.5 a6.75 6.75 0 1 0 13.5 0 a6.75 6.75 0 1 0 -13.5 0z" fill="rgba(225, 225, 225, 1)"></path><path d="M121.5 175.5L67.5 121.5L67.5 67.5L94.5 40.5" stroke-width="4.5" stroke="rgba(225, 225, 225, 1)"></path><path d="M114.75 175.5 a6.75 6.75 0 1 0 13.5 0 a6.75 6.75 0 1 0 -13.5 0zM87.75 40.5 a6.75 6.75 0 1 0 13.5 0 a6.75 6.75 0 1 0 -13.5 0z" fill="rgba(225, 225, 225, 1)"></path><path d="M337.5 202.5L256.5 283.5" stroke-width="4.5" stroke="rgba(225, 225, 225, 1)"></path><path d="M330.75 202.5 a6.75 6.75 0 1 0 13.5 0 a6.75 6.75 0 1 0 -13.5 0zM249.75 283.5 a6.75 6.75 0 1 0 13.5 0 a6.75 6.75 0 1 0 -13.5 0z" fill="rgba(225, 225, 225, 1)"></path><path d="M877.5 634.5L850.5 661.5L850.5 715.5" stroke-width="4.5" stroke="rgba(225, 225, 225, 1)"></path><path d="M870.75 634.5 a6.75 6.75 0 1 0 13.5 0 a6.75 6.75 0 1 0 -13.5 0zM843.75 715.5 a6.75 6.75 0 1 0 13.5 0 a6.75 6.75 0 1 0 -13.5 0z" fill="rgba(225, 225, 225, 1)"></path><path d="M877.5 94.5L715.5 256.5L688.5 256.5L607.5 175.5L607.5 94.5L526.5 13.5L499.5 13.5" stroke-width="4.5" stroke="rgba(225, 225, 225, 1)"></path><path d="M870.75 94.5 a6.75 6.75 0 1 0 13.5 0 a6.75 6.75 0 1 0 -13.5 0zM492.75 13.5 a6.75 6.75 0 1 0 13.5 0 a6.75 6.75 0 1 0 -13.5 0z" fill="rgba(225, 225, 225, 1)"></path><path d="M1012.5 472.5L1012.5 499.5L1066.5 553.5" stroke-width="4.5" stroke="rgba(225, 225, 225, 1)"></path><path d="M1005.75 472.5 a6.75 6.75 0 1 0 13.5 0 a6.75 6.75 0 1 0 -13.5 0zM1059.75 553.5 a6.75 6.75 0 1 0 13.5 0 a6.75 6.75 0 1 0 -13.5 0z" fill="rgba(225, 225, 225, 1)"></path><path d="M1228.5 526.5L1255.5 499.5L1336.5 499.5L1390.5 445.5L1444.5 445.5" stroke-width="4.5" stroke="rgba(225, 225, 225, 1)"></path><path d="M1221.75 526.5 a6.75 6.75 0 1 0 13.5 0 a6.75 6.75 0 1 0 -13.5 0zM1437.75 445.5 a6.75 6.75 0 1 0 13.5 0 a6.75 6.75 0 1 0 -13.5 0z" fill="rgba(225, 225, 225, 1)"></path><path d="M364.5 715.5L418.5 769.5L472.5 769.5" stroke-width="4.5" stroke="rgba(225, 225, 225, 1)"></path><path d="M357.75 715.5 a6.75 6.75 0 1 0 13.5 0 a6.75 6.75 0 1 0 -13.5 0zM465.75 769.5 a6.75 6.75 0 1 0 13.5 0 a6.75 6.75 0 1 0 -13.5 0z" fill="rgba(225, 225, 225, 1)"></path><path d="M1309.5 769.5L1228.5 850.5" stroke-width="4.5" stroke="rgba(225, 225, 225, 1)"></path><path d="M1302.75 769.5 a6.75 6.75 0 1 0 13.5 0 a6.75 6.75 0 1 0 -13.5 0zM1221.75 850.5 a6.75 6.75 0 1 0 13.5 0 a6.75 6.75 0 1 0 -13.5 0z" fill="rgba(225, 225, 225, 1)"></path><path d="M1363.5 931.5L1363.5 850.5L1309.5 796.5" stroke-width="4.5" stroke="rgba(225, 225, 225, 1)"></path><path d="M1356.75 931.5 a6.75 6.75 0 1 0 13.5 0 a6.75 6.75 0 1 0 -13.5 0zM1302.75 796.5 a6.75 6.75 0 1 0 13.5 0 a6.75 6.75 0 1 0 -13.5 0z" fill="rgba(225, 225, 225, 1)"></path><path d="M526.5 958.5L580.5 1012.5L742.5 1012.5" stroke-width="4.5" stroke="rgba(225, 225, 225, 1)"></path><path d="M519.75 958.5 a6.75 6.75 0 1 0 13.5 0 a6.75 6.75 0 1 0 -13.5 0zM735.75 1012.5 a6.75 6.75 0 1 0 13.5 0 a6.75 6.75 0 1 0 -13.5 0z" fill="rgba(225, 225, 225, 1)"></path><path d="M904.5 40.5L850.5 40.5L688.5 202.5L661.5 202.5L634.5 175.5L634.5 13.5" stroke-width="4.5" stroke="rgba(225, 225, 225, 1)"></path><path d="M897.75 40.5 a6.75 6.75 0 1 0 13.5 0 a6.75 6.75 0 1 0 -13.5 0zM627.75 13.5 a6.75 6.75 0 1 0 13.5 0 a6.75 6.75 0 1 0 -13.5 0z" fill="rgba(225, 225, 225, 1)"></path><path d="M1039.5 391.5L1147.5 283.5L1147.5 229.5L1309.5 67.5" stroke-width="4.5" stroke="rgba(225, 225, 225, 1)"></path><path d="M1032.75 391.5 a6.75 6.75 0 1 0 13.5 0 a6.75 6.75 0 1 0 -13.5 0zM1302.75 67.5 a6.75 6.75 0 1 0 13.5 0 a6.75 6.75 0 1 0 -13.5 0z" fill="rgba(225, 225, 225, 1)"></path><path d="M1336.5 796.5L1444.5 688.5" stroke-width="4.5" stroke="rgba(225, 225, 225, 1)"></path><path d="M1329.75 796.5 a6.75 6.75 0 1 0 13.5 0 a6.75 6.75 0 1 0 -13.5 0zM1437.75 688.5 a6.75 6.75 0 1 0 13.5 0 a6.75 6.75 0 1 0 -13.5 0z" fill="rgba(225, 225, 225, 1)"></path><path d="M472.5 1012.5L391.5 1012.5" stroke-width="4.5" stroke="rgba(225, 225, 225, 1)"></path><path d="M465.75 1012.5 a6.75 6.75 0 1 0 13.5 0 a6.75 6.75 0 1 0 -13.5 0zM384.75 1012.5 a6.75 6.75 0 1 0 13.5 0 a6.75 6.75 0 1 0 -13.5 0z" fill="rgba(225, 225, 225, 1)"></path><path d="M256.5 958.5L229.5 958.5L202.5 985.5L121.5 985.5L13.5 877.5L13.5 850.5" stroke-width="4.5" stroke="rgba(225, 225, 225, 1)"></path><path d="M249.75 958.5 a6.75 6.75 0 1 0 13.5 0 a6.75 6.75 0 1 0 -13.5 0zM6.75 850.5 a6.75 6.75 0 1 0 13.5 0 a6.75 6.75 0 1 0 -13.5 0z" fill="rgba(225, 225, 225, 1)"></path><path d="M418.5 391.5L472.5 391.5L526.5 337.5" stroke-width="4.5" stroke="rgba(225, 225, 225, 1)"></path><path d="M411.75 391.5 a6.75 6.75 0 1 0 13.5 0 a6.75 6.75 0 1 0 -13.5 0zM519.75 337.5 a6.75 6.75 0 1 0 13.5 0 a6.75 6.75 0 1 0 -13.5 0z" fill="rgba(225, 225, 225, 1)"></path><path d="M1066.5 94.5L1039.5 94.5L1012.5 67.5L985.5 67.5" stroke-width="4.5" stroke="rgba(225, 225, 225, 1)"></path><path d="M1059.75 94.5 a6.75 6.75 0 1 0 13.5 0 a6.75 6.75 0 1 0 -13.5 0zM978.75 67.5 a6.75 6.75 0 1 0 13.5 0 a6.75 6.75 0 1 0 -13.5 0z" fill="rgba(225, 225, 225, 1)"></path><path d="M769.5 958.5L715.5 904.5L715.5 850.5" stroke-width="4.5" stroke="rgba(225, 225, 225, 1)"></path><path d="M762.75 958.5 a6.75 6.75 0 1 0 13.5 0 a6.75 6.75 0 1 0 -13.5 0zM708.75 850.5 a6.75 6.75 0 1 0 13.5 0 a6.75 6.75 0 1 0 -13.5 0z" fill="rgba(225, 225, 225, 1)"></path><path d="M94.5 796.5L94.5 742.5" stroke-width="4.5" stroke="rgba(225, 225, 225, 1)"></path><path d="M87.75 796.5 a6.75 6.75 0 1 0 13.5 0 a6.75 6.75 0 1 0 -13.5 0zM87.75 742.5 a6.75 6.75 0 1 0 13.5 0 a6.75 6.75 0 1 0 -13.5 0z" fill="rgba(225, 225, 225, 1)"></path><path d="M94.5 904.5L94.5 931.5L121.5 958.5L148.5 958.5L229.5 877.5" stroke-width="4.5" stroke="rgba(225, 225, 225, 1)"></path><path d="M87.75 904.5 a6.75 6.75 0 1 0 13.5 0 a6.75 6.75 0 1 0 -13.5 0zM222.75 877.5 a6.75 6.75 0 1 0 13.5 0 a6.75 6.75 0 1 0 -13.5 0z" fill="rgba(225, 225, 225, 1)"></path><path d="M1147.5 121.5L985.5 283.5L985.5 310.5" stroke-width="4.5" stroke="rgba(225, 225, 225, 1)"></path><path d="M1140.75 121.5 a6.75 6.75 0 1 0 13.5 0 a6.75 6.75 0 1 0 -13.5 0zM978.75 310.5 a6.75 6.75 0 1 0 13.5 0 a6.75 6.75 0 1 0 -13.5 0z" fill="rgba(225, 225, 225, 1)"></path><path d="M1012.5 526.5L1012.5 634.5L877.5 769.5L877.5 823.5" stroke-width="4.5" stroke="rgba(225, 225, 225, 1)"></path><path d="M1005.75 526.5 a6.75 6.75 0 1 0 13.5 0 a6.75 6.75 0 1 0 -13.5 0zM870.75 823.5 a6.75 6.75 0 1 0 13.5 0 a6.75 6.75 0 1 0 -13.5 0z" fill="rgba(225, 225, 225, 1)"></path><path d="M1039.5 661.5L1039.5 553.5" stroke-width="4.5" stroke="rgba(225, 225, 225, 1)"></path><path d="M1032.75 661.5 a6.75 6.75 0 1 0 13.5 0 a6.75 6.75 0 1 0 -13.5 0zM1032.75 553.5 a6.75 6.75 0 1 0 13.5 0 a6.75 6.75 0 1 0 -13.5 0z" fill="rgba(225, 225, 225, 1)"></path><path d="M1444.5 499.5L1444.5 580.5" stroke-width="4.5" stroke="rgba(225, 225, 225, 1)"></path><path d="M1437.75 499.5 a6.75 6.75 0 1 0 13.5 0 a6.75 6.75 0 1 0 -13.5 0zM1437.75 580.5 a6.75 6.75 0 1 0 13.5 0 a6.75 6.75 0 1 0 -13.5 0z" fill="rgba(225, 225, 225, 1)"></path><path d="M904.5 202.5L904.5 229.5L823.5 310.5L769.5 310.5" stroke-width="4.5" stroke="rgba(225, 225, 225, 1)"></path><path d="M897.75 202.5 a6.75 6.75 0 1 0 13.5 0 a6.75 6.75 0 1 0 -13.5 0zM762.75 310.5 a6.75 6.75 0 1 0 13.5 0 a6.75 6.75 0 1 0 -13.5 0z" fill="rgba(225, 225, 225, 1)"></path><path d="M931.5 445.5L931.5 607.5L904.5 634.5" stroke-width="4.5" stroke="rgba(225, 225, 225, 1)"></path><path d="M924.75 445.5 a6.75 6.75 0 1 0 13.5 0 a6.75 6.75 0 1 0 -13.5 0zM897.75 634.5 a6.75 6.75 0 1 0 13.5 0 a6.75 6.75 0 1 0 -13.5 0z" fill="rgba(225, 225, 225, 1)"></path><path d="M67.5 661.5L40.5 634.5L40.5 607.5L67.5 580.5" stroke-width="4.5" stroke="rgba(225, 225, 225, 1)"></path><path d="M60.75 661.5 a6.75 6.75 0 1 0 13.5 0 a6.75 6.75 0 1 0 -13.5 0zM60.75 580.5 a6.75 6.75 0 1 0 13.5 0 a6.75 6.75 0 1 0 -13.5 0z" fill="rgba(225, 225, 225, 1)"></path><path d="M499.5 931.5L472.5 931.5L418.5 985.5" stroke-width="4.5" stroke="rgba(225, 225, 225, 1)"></path><path d="M492.75 931.5 a6.75 6.75 0 1 0 13.5 0 a6.75 6.75 0 1 0 -13.5 0zM411.75 985.5 a6.75 6.75 0 1 0 13.5 0 a6.75 6.75 0 1 0 -13.5 0z" fill="rgba(225, 225, 225, 1)"></path><path d="M1336.5 958.5L1336.5 850.5L1309.5 823.5L1282.5 823.5L1255.5 850.5L1255.5 877.5L1309.5 931.5" stroke-width="4.5" stroke="rgba(225, 225, 225, 1)"></path><path d="M1329.75 958.5 a6.75 6.75 0 1 0 13.5 0 a6.75 6.75 0 1 0 -13.5 0zM1302.75 931.5 a6.75 6.75 0 1 0 13.5 0 a6.75 6.75 0 1 0 -13.5 0z" fill="rgba(225, 225, 225, 1)"></path><path d="M310.5 553.5L310.5 634.5" stroke-width="4.5" stroke="rgba(225, 225, 225, 1)"></path><path d="M303.75 553.5 a6.75 6.75 0 1 0 13.5 0 a6.75 6.75 0 1 0 -13.5 0zM303.75 634.5 a6.75 6.75 0 1 0 13.5 0 a6.75 6.75 0 1 0 -13.5 0z" fill="rgba(225, 225, 225, 1)"></path><path d="M148.5 634.5L202.5 688.5L256.5 688.5L283.5 715.5L283.5 769.5" stroke-width="4.5" stroke="rgba(225, 225, 225, 1)"></path><path d="M141.75 634.5 a6.75 6.75 0 1 0 13.5 0 a6.75 6.75 0 1 0 -13.5 0zM276.75 769.5 a6.75 6.75 0 1 0 13.5 0 a6.75 6.75 0 1 0 -13.5 0z" fill="rgba(225, 225, 225, 1)"></path><path d="M337.5 607.5L391.5 553.5L418.5 553.5" stroke-width="4.5" stroke="rgba(225, 225, 225, 1)"></path><path d="M330.75 607.5 a6.75 6.75 0 1 0 13.5 0 a6.75 6.75 0 1 0 -13.5 0zM411.75 553.5 a6.75 6.75 0 1 0 13.5 0 a6.75 6.75 0 1 0 -13.5 0z" fill="rgba(225, 225, 225, 1)"></path><path d="M229.5 67.5L229.5 256.5" stroke-width="4.5" stroke="rgba(225, 225, 225, 1)"></path><path d="M222.75 67.5 a6.75 6.75 0 1 0 13.5 0 a6.75 6.75 0 1 0 -13.5 0zM222.75 256.5 a6.75 6.75 0 1 0 13.5 0 a6.75 6.75 0 1 0 -13.5 0z" fill="rgba(225, 225, 225, 1)"></path><path d="M1255.5 715.5L1255.5 796.5L1228.5 823.5L1174.5 823.5" stroke-width="4.5" stroke="rgba(225, 225, 225, 1)"></path><path d="M1248.75 715.5 a6.75 6.75 0 1 0 13.5 0 a6.75 6.75 0 1 0 -13.5 0zM1167.75 823.5 a6.75 6.75 0 1 0 13.5 0 a6.75 6.75 0 1 0 -13.5 0z" fill="rgba(225, 225, 225, 1)"></path><path d="M121.5 121.5L121.5 148.5L148.5 175.5L148.5 472.5" stroke-width="4.5" stroke="rgba(225, 225, 225, 1)"></path><path d="M114.75 121.5 a6.75 6.75 0 1 0 13.5 0 a6.75 6.75 0 1 0 -13.5 0zM141.75 472.5 a6.75 6.75 0 1 0 13.5 0 a6.75 6.75 0 1 0 -13.5 0z" fill="rgba(225, 225, 225, 1)"></path><path d="M553.5 877.5L526.5 877.5L472.5 823.5" stroke-width="4.5" stroke="rgba(225, 225, 225, 1)"></path><path d="M546.75 877.5 a6.75 6.75 0 1 0 13.5 0 a6.75 6.75 0 1 0 -13.5 0zM465.75 823.5 a6.75 6.75 0 1 0 13.5 0 a6.75 6.75 0 1 0 -13.5 0z" fill="rgba(225, 225, 225, 1)"></path><path d="M1309.5 337.5L1282.5 310.5L1282.5 202.5L1390.5 94.5" stroke-width="4.5" stroke="rgba(225, 225, 225, 1)"></path><path d="M1302.75 337.5 a6.75 6.75 0 1 0 13.5 0 a6.75 6.75 0 1 0 -13.5 0zM1383.75 94.5 a6.75 6.75 0 1 0 13.5 0 a6.75 6.75 0 1 0 -13.5 0z" fill="rgba(225, 225, 225, 1)"></path><path d="M391.5 337.5L337.5 337.5" stroke-width="4.5" stroke="rgba(225, 225, 225, 1)"></path><path d="M384.75 337.5 a6.75 6.75 0 1 0 13.5 0 a6.75 6.75 0 1 0 -13.5 0zM330.75 337.5 a6.75 6.75 0 1 0 13.5 0 a6.75 6.75 0 1 0 -13.5 0z" fill="rgba(225, 225, 225, 1)"></path><path d="M67.5 202.5L67.5 499.5L94.5 526.5" stroke-width="4.5" stroke="rgba(225, 225, 225, 1)"></path><path d="M60.75 202.5 a6.75 6.75 0 1 0 13.5 0 a6.75 6.75 0 1 0 -13.5 0zM87.75 526.5 a6.75 6.75 0 1 0 13.5 0 a6.75 6.75 0 1 0 -13.5 0z" fill="rgba(225, 225, 225, 1)"></path><path d="M310.5 904.5L283.5 904.5L256.5 931.5" stroke-width="4.5" stroke="rgba(225, 225, 225, 1)"></path><path d="M303.75 904.5 a6.75 6.75 0 1 0 13.5 0 a6.75 6.75 0 1 0 -13.5 0zM249.75 931.5 a6.75 6.75 0 1 0 13.5 0 a6.75 6.75 0 1 0 -13.5 0z" fill="rgba(225, 225, 225, 1)"></path><path d="M256.5 661.5L202.5 661.5L148.5 607.5L148.5 526.5" stroke-width="4.5" stroke="rgba(225, 225, 225, 1)"></path><path d="M249.75 661.5 a6.75 6.75 0 1 0 13.5 0 a6.75 6.75 0 1 0 -13.5 0zM141.75 526.5 a6.75 6.75 0 1 0 13.5 0 a6.75 6.75 0 1 0 -13.5 0z" fill="rgba(225, 225, 225, 1)"></path><path d="M1093.5 202.5L1120.5 175.5L1147.5 175.5L1255.5 67.5L1282.5 67.5" stroke-width="4.5" stroke="rgba(225, 225, 225, 1)"></path><path d="M1086.75 202.5 a6.75 6.75 0 1 0 13.5 0 a6.75 6.75 0 1 0 -13.5 0zM1275.75 67.5 a6.75 6.75 0 1 0 13.5 0 a6.75 6.75 0 1 0 -13.5 0z" fill="rgba(225, 225, 225, 1)"></path><path d="M121.5 688.5L175.5 688.5" stroke-width="4.5" stroke="rgba(225, 225, 225, 1)"></path><path d="M114.75 688.5 a6.75 6.75 0 1 0 13.5 0 a6.75 6.75 0 1 0 -13.5 0zM168.75 688.5 a6.75 6.75 0 1 0 13.5 0 a6.75 6.75 0 1 0 -13.5 0z" fill="rgba(225, 225, 225, 1)"></path><path d="M499.5 1012.5L472.5 985.5L472.5 958.5" stroke-width="4.5" stroke="rgba(225, 225, 225, 1)"></path><path d="M492.75 1012.5 a6.75 6.75 0 1 0 13.5 0 a6.75 6.75 0 1 0 -13.5 0zM465.75 958.5 a6.75 6.75 0 1 0 13.5 0 a6.75 6.75 0 1 0 -13.5 0z" fill="rgba(225, 225, 225, 1)"></path><path d="M769.5 877.5L796.5 904.5L796.5 931.5" stroke-width="4.5" stroke="rgba(225, 225, 225, 1)"></path><path d="M762.75 877.5 a6.75 6.75 0 1 0 13.5 0 a6.75 6.75 0 1 0 -13.5 0zM789.75 931.5 a6.75 6.75 0 1 0 13.5 0 a6.75 6.75 0 1 0 -13.5 0z" fill="rgba(225, 225, 225, 1)"></path><path d="M580.5 310.5L553.5 283.5L526.5 283.5" stroke-width="4.5" stroke="rgba(225, 225, 225, 1)"></path><path d="M573.75 310.5 a6.75 6.75 0 1 0 13.5 0 a6.75 6.75 0 1 0 -13.5 0zM519.75 283.5 a6.75 6.75 0 1 0 13.5 0 a6.75 6.75 0 1 0 -13.5 0z" fill="rgba(225, 225, 225, 1)"></path><path d="M13.5 796.5L40.5 769.5L40.5 742.5L13.5 715.5" stroke-width="4.5" stroke="rgba(225, 225, 225, 1)"></path><path d="M6.75 796.5 a6.75 6.75 0 1 0 13.5 0 a6.75 6.75 0 1 0 -13.5 0zM6.75 715.5 a6.75 6.75 0 1 0 13.5 0 a6.75 6.75 0 1 0 -13.5 0z" fill="rgba(225, 225, 225, 1)"></path><path d="M283.5 229.5L310.5 202.5L310.5 94.5L256.5 40.5L202.5 40.5L175.5 67.5" stroke-width="4.5" stroke="rgba(225, 225, 225, 1)"></path><path d="M276.75 229.5 a6.75 6.75 0 1 0 13.5 0 a6.75 6.75 0 1 0 -13.5 0zM168.75 67.5 a6.75 6.75 0 1 0 13.5 0 a6.75 6.75 0 1 0 -13.5 0z" fill="rgba(225, 225, 225, 1)"></path><path d="M13.5 121.5L13.5 445.5L40.5 472.5" stroke-width="4.5" stroke="rgba(225, 225, 225, 1)"></path><path d="M6.75 121.5 a6.75 6.75 0 1 0 13.5 0 a6.75 6.75 0 1 0 -13.5 0zM33.75 472.5 a6.75 6.75 0 1 0 13.5 0 a6.75 6.75 0 1 0 -13.5 0z" fill="rgba(225, 225, 225, 1)"></path><path d="M1363.5 229.5L1363.5 283.5L1336.5 310.5L1336.5 337.5" stroke-width="4.5" stroke="rgba(225, 225, 225, 1)"></path><path d="M1356.75 229.5 a6.75 6.75 0 1 0 13.5 0 a6.75 6.75 0 1 0 -13.5 0zM1329.75 337.5 a6.75 6.75 0 1 0 13.5 0 a6.75 6.75 0 1 0 -13.5 0z" fill="rgba(225, 225, 225, 1)"></path><path d="M121.5 796.5L121.5 742.5" stroke-width="4.5" stroke="rgba(225, 225, 225, 1)"></path><path d="M114.75 796.5 a6.75 6.75 0 1 0 13.5 0 a6.75 6.75 0 1 0 -13.5 0zM114.75 742.5 a6.75 6.75 0 1 0 13.5 0 a6.75 6.75 0 1 0 -13.5 0z" fill="rgba(225, 225, 225, 1)"></path><path d="M553.5 688.5L607.5 634.5" stroke-width="4.5" stroke="rgba(225, 225, 225, 1)"></path><path d="M546.75 688.5 a6.75 6.75 0 1 0 13.5 0 a6.75 6.75 0 1 0 -13.5 0zM600.75 634.5 a6.75 6.75 0 1 0 13.5 0 a6.75 6.75 0 1 0 -13.5 0z" fill="rgba(225, 225, 225, 1)"></path><path d="M769.5 742.5L796.5 769.5L796.5 796.5" stroke-width="4.5" stroke="rgba(225, 225, 225, 1)"></path><path d="M762.75 742.5 a6.75 6.75 0 1 0 13.5 0 a6.75 6.75 0 1 0 -13.5 0zM789.75 796.5 a6.75 6.75 0 1 0 13.5 0 a6.75 6.75 0 1 0 -13.5 0z" fill="rgba(225, 225, 225, 1)"></path><path d="M607.5 526.5L715.5 418.5L742.5 418.5L796.5 472.5" stroke-width="4.5" stroke="rgba(225, 225, 225, 1)"></path><path d="M600.75 526.5 a6.75 6.75 0 1 0 13.5 0 a6.75 6.75 0 1 0 -13.5 0zM789.75 472.5 a6.75 6.75 0 1 0 13.5 0 a6.75 6.75 0 1 0 -13.5 0z" fill="rgba(225, 225, 225, 1)"></path><path d="M715.5 148.5L661.5 94.5L661.5 67.5" stroke-width="4.5" stroke="rgba(225, 225, 225, 1)"></path><path d="M708.75 148.5 a6.75 6.75 0 1 0 13.5 0 a6.75 6.75 0 1 0 -13.5 0zM654.75 67.5 a6.75 6.75 0 1 0 13.5 0 a6.75 6.75 0 1 0 -13.5 0z" fill="rgba(225, 225, 225, 1)"></path><path d="M1309.5 742.5L1363.5 742.5L1417.5 688.5" stroke-width="4.5" stroke="rgba(225, 225, 225, 1)"></path><path d="M1302.75 742.5 a6.75 6.75 0 1 0 13.5 0 a6.75 6.75 0 1 0 -13.5 0zM1410.75 688.5 a6.75 6.75 0 1 0 13.5 0 a6.75 6.75 0 1 0 -13.5 0z" fill="rgba(225, 225, 225, 1)"></path><path d="M1120.5 40.5L1066.5 40.5L1039.5 67.5" stroke-width="4.5" stroke="rgba(225, 225, 225, 1)"></path><path d="M1113.75 40.5 a6.75 6.75 0 1 0 13.5 0 a6.75 6.75 0 1 0 -13.5 0zM1032.75 67.5 a6.75 6.75 0 1 0 13.5 0 a6.75 6.75 0 1 0 -13.5 0z" fill="rgba(225, 225, 225, 1)"></path><path d="M580.5 418.5L526.5 472.5L445.5 472.5L418.5 445.5L418.5 418.5L364.5 364.5L337.5 364.5" stroke-width="4.5" stroke="rgba(225, 225, 225, 1)"></path><path d="M573.75 418.5 a6.75 6.75 0 1 0 13.5 0 a6.75 6.75 0 1 0 -13.5 0zM330.75 364.5 a6.75 6.75 0 1 0 13.5 0 a6.75 6.75 0 1 0 -13.5 0z" fill="rgba(225, 225, 225, 1)"></path><path d="M553.5 553.5L553.5 661.5L526.5 688.5" stroke-width="4.5" stroke="rgba(225, 225, 225, 1)"></path><path d="M546.75 553.5 a6.75 6.75 0 1 0 13.5 0 a6.75 6.75 0 1 0 -13.5 0zM519.75 688.5 a6.75 6.75 0 1 0 13.5 0 a6.75 6.75 0 1 0 -13.5 0z" fill="rgba(225, 225, 225, 1)"></path><path d="M769.5 94.5L715.5 94.5L688.5 67.5" stroke-width="4.5" stroke="rgba(225, 225, 225, 1)"></path><path d="M762.75 94.5 a6.75 6.75 0 1 0 13.5 0 a6.75 6.75 0 1 0 -13.5 0zM681.75 67.5 a6.75 6.75 0 1 0 13.5 0 a6.75 6.75 0 1 0 -13.5 0z" fill="rgba(225, 225, 225, 1)"></path><path d="M877.5 526.5L850.5 553.5L850.5 634.5" stroke-width="4.5" stroke="rgba(225, 225, 225, 1)"></path><path d="M870.75 526.5 a6.75 6.75 0 1 0 13.5 0 a6.75 6.75 0 1 0 -13.5 0zM843.75 634.5 a6.75 6.75 0 1 0 13.5 0 a6.75 6.75 0 1 0 -13.5 0z" fill="rgba(225, 225, 225, 1)"></path><path d="M1120.5 283.5L1093.5 283.5L1066.5 310.5L1066.5 337.5L985.5 418.5" stroke-width="4.5" stroke="rgba(225, 225, 225, 1)"></path><path d="M1113.75 283.5 a6.75 6.75 0 1 0 13.5 0 a6.75 6.75 0 1 0 -13.5 0zM978.75 418.5 a6.75 6.75 0 1 0 13.5 0 a6.75 6.75 0 1 0 -13.5 0z" fill="rgba(225, 225, 225, 1)"></path><path d="M1093.5 985.5L1147.5 931.5L1174.5 931.5L1201.5 958.5L1201.5 985.5" stroke-width="4.5" stroke="rgba(225, 225, 225, 1)"></path><path d="M1086.75 985.5 a6.75 6.75 0 1 0 13.5 0 a6.75 6.75 0 1 0 -13.5 0zM1194.75 985.5 a6.75 6.75 0 1 0 13.5 0 a6.75 6.75 0 1 0 -13.5 0z" fill="rgba(225, 225, 225, 1)"></path><path d="M1309.5 391.5L1390.5 391.5" stroke-width="4.5" stroke="rgba(225, 225, 225, 1)"></path><path d="M1302.75 391.5 a6.75 6.75 0 1 0 13.5 0 a6.75 6.75 0 1 0 -13.5 0zM1383.75 391.5 a6.75 6.75 0 1 0 13.5 0 a6.75 6.75 0 1 0 -13.5 0z" fill="rgba(225, 225, 225, 1)"></path><path d="M580.5 931.5L580.5 985.5" stroke-width="4.5" stroke="rgba(225, 225, 225, 1)"></path><path d="M573.75 931.5 a6.75 6.75 0 1 0 13.5 0 a6.75 6.75 0 1 0 -13.5 0zM573.75 985.5 a6.75 6.75 0 1 0 13.5 0 a6.75 6.75 0 1 0 -13.5 0z" fill="rgba(225, 225, 225, 1)"></path><path d="M1174.5 877.5L1255.5 958.5L1282.5 958.5L1309.5 985.5" stroke-width="4.5" stroke="rgba(225, 225, 225, 1)"></path><path d="M1167.75 877.5 a6.75 6.75 0 1 0 13.5 0 a6.75 6.75 0 1 0 -13.5 0zM1302.75 985.5 a6.75 6.75 0 1 0 13.5 0 a6.75 6.75 0 1 0 -13.5 0z" fill="rgba(225, 225, 225, 1)"></path><path d="M661.5 580.5L634.5 553.5L634.5 526.5L661.5 499.5" stroke-width="4.5" stroke="rgba(225, 225, 225, 1)"></path><path d="M654.75 580.5 a6.75 6.75 0 1 0 13.5 0 a6.75 6.75 0 1 0 -13.5 0zM654.75 499.5 a6.75 6.75 0 1 0 13.5 0 a6.75 6.75 0 1 0 -13.5 0z" fill="rgba(225, 225, 225, 1)"></path><path d="M94.5 337.5L94.5 283.5" stroke-width="4.5" stroke="rgba(225, 225, 225, 1)"></path><path d="M87.75 337.5 a6.75 6.75 0 1 0 13.5 0 a6.75 6.75 0 1 0 -13.5 0zM87.75 283.5 a6.75 6.75 0 1 0 13.5 0 a6.75 6.75 0 1 0 -13.5 0z" fill="rgba(225, 225, 225, 1)"></path><path d="M634.5 931.5L634.5 904.5L553.5 823.5L526.5 823.5" stroke-width="4.5" stroke="rgba(225, 225, 225, 1)"></path><path d="M627.75 931.5 a6.75 6.75 0 1 0 13.5 0 a6.75 6.75 0 1 0 -13.5 0zM519.75 823.5 a6.75 6.75 0 1 0 13.5 0 a6.75 6.75 0 1 0 -13.5 0z" fill="rgba(225, 225, 225, 1)"></path><path d="M958.5 715.5L958.5 796.5" stroke-width="4.5" stroke="rgba(225, 225, 225, 1)"></path><path d="M951.75 715.5 a6.75 6.75 0 1 0 13.5 0 a6.75 6.75 0 1 0 -13.5 0zM951.75 796.5 a6.75 6.75 0 1 0 13.5 0 a6.75 6.75 0 1 0 -13.5 0z" fill="rgba(225, 225, 225, 1)"></path><path d="M607.5 931.5L580.5 904.5L580.5 877.5" stroke-width="4.5" stroke="rgba(225, 225, 225, 1)"></path><path d="M600.75 931.5 a6.75 6.75 0 1 0 13.5 0 a6.75 6.75 0 1 0 -13.5 0zM573.75 877.5 a6.75 6.75 0 1 0 13.5 0 a6.75 6.75 0 1 0 -13.5 0z" fill="rgba(225, 225, 225, 1)"></path><path d="M364.5 175.5L364.5 67.5L391.5 40.5L418.5 40.5" stroke-width="4.5" stroke="rgba(225, 225, 225, 1)"></path><path d="M357.75 175.5 a6.75 6.75 0 1 0 13.5 0 a6.75 6.75 0 1 0 -13.5 0zM411.75 40.5 a6.75 6.75 0 1 0 13.5 0 a6.75 6.75 0 1 0 -13.5 0z" fill="rgba(225, 225, 225, 1)"></path><path d="M985.5 742.5L1039.5 688.5" stroke-width="4.5" stroke="rgba(225, 225, 225, 1)"></path><path d="M978.75 742.5 a6.75 6.75 0 1 0 13.5 0 a6.75 6.75 0 1 0 -13.5 0zM1032.75 688.5 a6.75 6.75 0 1 0 13.5 0 a6.75 6.75 0 1 0 -13.5 0z" fill="rgba(225, 225, 225, 1)"></path><path d="M256.5 67.5L256.5 256.5" stroke-width="4.5" stroke="rgba(225, 225, 225, 1)"></path><path d="M249.75 67.5 a6.75 6.75 0 1 0 13.5 0 a6.75 6.75 0 1 0 -13.5 0zM249.75 256.5 a6.75 6.75 0 1 0 13.5 0 a6.75 6.75 0 1 0 -13.5 0z" fill="rgba(225, 225, 225, 1)"></path><path d="M769.5 13.5L661.5 13.5" stroke-width="4.5" stroke="rgba(225, 225, 225, 1)"></path><path d="M762.75 13.5 a6.75 6.75 0 1 0 13.5 0 a6.75 6.75 0 1 0 -13.5 0zM654.75 13.5 a6.75 6.75 0 1 0 13.5 0 a6.75 6.75 0 1 0 -13.5 0z" fill="rgba(225, 225, 225, 1)"></path><path d="M283.5 526.5L229.5 526.5" stroke-width="4.5" stroke="rgba(225, 225, 225, 1)"></path><path d="M276.75 526.5 a6.75 6.75 0 1 0 13.5 0 a6.75 6.75 0 1 0 -13.5 0zM222.75 526.5 a6.75 6.75 0 1 0 13.5 0 a6.75 6.75 0 1 0 -13.5 0z" fill="rgba(225, 225, 225, 1)"></path><path d="M850.5 985.5L850.5 931.5" stroke-width="4.5" stroke="rgba(225, 225, 225, 1)"></path><path d="M843.75 985.5 a6.75 6.75 0 1 0 13.5 0 a6.75 6.75 0 1 0 -13.5 0zM843.75 931.5 a6.75 6.75 0 1 0 13.5 0 a6.75 6.75 0 1 0 -13.5 0z" fill="rgba(225, 225, 225, 1)"></path><path d="M769.5 175.5L715.5 229.5L688.5 229.5" stroke-width="4.5" stroke="rgba(225, 225, 225, 1)"></path><path d="M762.75 175.5 a6.75 6.75 0 1 0 13.5 0 a6.75 6.75 0 1 0 -13.5 0zM681.75 229.5 a6.75 6.75 0 1 0 13.5 0 a6.75 6.75 0 1 0 -13.5 0z" fill="rgba(225, 225, 225, 1)"></path><path d="M1282.5 553.5L1336.5 553.5L1417.5 472.5L1444.5 472.5" stroke-width="4.5" stroke="rgba(225, 225, 225, 1)"></path><path d="M1275.75 553.5 a6.75 6.75 0 1 0 13.5 0 a6.75 6.75 0 1 0 -13.5 0zM1437.75 472.5 a6.75 6.75 0 1 0 13.5 0 a6.75 6.75 0 1 0 -13.5 0z" fill="rgba(225, 225, 225, 1)"></path><path d="M391.5 904.5L310.5 985.5L229.5 985.5" stroke-width="4.5" stroke="rgba(225, 225, 225, 1)"></path><path d="M384.75 904.5 a6.75 6.75 0 1 0 13.5 0 a6.75 6.75 0 1 0 -13.5 0zM222.75 985.5 a6.75 6.75 0 1 0 13.5 0 a6.75 6.75 0 1 0 -13.5 0z" fill="rgba(225, 225, 225, 1)"></path><path d="M1147.5 94.5L1201.5 94.5" stroke-width="4.5" stroke="rgba(225, 225, 225, 1)"></path><path d="M1140.75 94.5 a6.75 6.75 0 1 0 13.5 0 a6.75 6.75 0 1 0 -13.5 0zM1194.75 94.5 a6.75 6.75 0 1 0 13.5 0 a6.75 6.75 0 1 0 -13.5 0z" fill="rgba(225, 225, 225, 1)"></path><path d="M1093.5 661.5L1093.5 850.5" stroke-width="4.5" stroke="rgba(225, 225, 225, 1)"></path><path d="M1086.75 661.5 a6.75 6.75 0 1 0 13.5 0 a6.75 6.75 0 1 0 -13.5 0zM1086.75 850.5 a6.75 6.75 0 1 0 13.5 0 a6.75 6.75 0 1 0 -13.5 0z" fill="rgba(225, 225, 225, 1)"></path><path d="M742.5 67.5L796.5 13.5L850.5 13.5" stroke-width="4.5" stroke="rgba(225, 225, 225, 1)"></path><path d="M735.75 67.5 a6.75 6.75 0 1 0 13.5 0 a6.75 6.75 0 1 0 -13.5 0zM843.75 13.5 a6.75 6.75 0 1 0 13.5 0 a6.75 6.75 0 1 0 -13.5 0z" fill="rgba(225, 225, 225, 1)"></path><path d="M175.5 877.5L148.5 850.5L121.5 850.5L67.5 904.5" stroke-width="4.5" stroke="rgba(225, 225, 225, 1)"></path><path d="M168.75 877.5 a6.75 6.75 0 1 0 13.5 0 a6.75 6.75 0 1 0 -13.5 0zM60.75 904.5 a6.75 6.75 0 1 0 13.5 0 a6.75 6.75 0 1 0 -13.5 0z" fill="rgba(225, 225, 225, 1)"></path><path d="M391.5 877.5L418.5 904.5L418.5 931.5L364.5 985.5L337.5 985.5" stroke-width="4.5" stroke="rgba(225, 225, 225, 1)"></path><path d="M384.75 877.5 a6.75 6.75 0 1 0 13.5 0 a6.75 6.75 0 1 0 -13.5 0zM330.75 985.5 a6.75 6.75 0 1 0 13.5 0 a6.75 6.75 0 1 0 -13.5 0z" fill="rgba(225, 225, 225, 1)"></path><path d="M148.5 148.5L148.5 121.5L94.5 67.5" stroke-width="4.5" stroke="rgba(225, 225, 225, 1)"></path><path d="M141.75 148.5 a6.75 6.75 0 1 0 13.5 0 a6.75 6.75 0 1 0 -13.5 0zM87.75 67.5 a6.75 6.75 0 1 0 13.5 0 a6.75 6.75 0 1 0 -13.5 0z" fill="rgba(225, 225, 225, 1)"></path><path d="M499.5 310.5L499.5 337.5L472.5 364.5L391.5 364.5" stroke-width="4.5" stroke="rgba(225, 225, 225, 1)"></path><path d="M492.75 310.5 a6.75 6.75 0 1 0 13.5 0 a6.75 6.75 0 1 0 -13.5 0zM384.75 364.5 a6.75 6.75 0 1 0 13.5 0 a6.75 6.75 0 1 0 -13.5 0z" fill="rgba(225, 225, 225, 1)"></path><path d="M1093.5 364.5L1120.5 364.5L1147.5 337.5" stroke-width="4.5" stroke="rgba(225, 225, 225, 1)"></path><path d="M1086.75 364.5 a6.75 6.75 0 1 0 13.5 0 a6.75 6.75 0 1 0 -13.5 0zM1140.75 337.5 a6.75 6.75 0 1 0 13.5 0 a6.75 6.75 0 1 0 -13.5 0z" fill="rgba(225, 225, 225, 1)"></path><path d="M94.5 445.5L94.5 364.5" stroke-width="4.5" stroke="rgba(225, 225, 225, 1)"></path><path d="M87.75 445.5 a6.75 6.75 0 1 0 13.5 0 a6.75 6.75 0 1 0 -13.5 0zM87.75 364.5 a6.75 6.75 0 1 0 13.5 0 a6.75 6.75 0 1 0 -13.5 0z" fill="rgba(225, 225, 225, 1)"></path><path d="M67.5 742.5L67.5 796.5" stroke-width="4.5" stroke="rgba(225, 225, 225, 1)"></path><path d="M60.75 742.5 a6.75 6.75 0 1 0 13.5 0 a6.75 6.75 0 1 0 -13.5 0zM60.75 796.5 a6.75 6.75 0 1 0 13.5 0 a6.75 6.75 0 1 0 -13.5 0z" fill="rgba(225, 225, 225, 1)"></path><path d="M148.5 742.5L148.5 769.5L175.5 796.5L202.5 796.5" stroke-width="4.5" stroke="rgba(225, 225, 225, 1)"></path><path d="M141.75 742.5 a6.75 6.75 0 1 0 13.5 0 a6.75 6.75 0 1 0 -13.5 0zM195.75 796.5 a6.75 6.75 0 1 0 13.5 0 a6.75 6.75 0 1 0 -13.5 0z" fill="rgba(225, 225, 225, 1)"></path><path d="M715.5 553.5L715.5 472.5" stroke-width="4.5" stroke="rgba(225, 225, 225, 1)"></path><path d="M708.75 553.5 a6.75 6.75 0 1 0 13.5 0 a6.75 6.75 0 1 0 -13.5 0zM708.75 472.5 a6.75 6.75 0 1 0 13.5 0 a6.75 6.75 0 1 0 -13.5 0z" fill="rgba(225, 225, 225, 1)"></path><path d="M1093.5 229.5L1039.5 283.5L1012.5 283.5" stroke-width="4.5" stroke="rgba(225, 225, 225, 1)"></path><path d="M1086.75 229.5 a6.75 6.75 0 1 0 13.5 0 a6.75 6.75 0 1 0 -13.5 0zM1005.75 283.5 a6.75 6.75 0 1 0 13.5 0 a6.75 6.75 0 1 0 -13.5 0z" fill="rgba(225, 225, 225, 1)"></path><path d="M1390.5 904.5L1444.5 850.5L1444.5 715.5" stroke-width="4.5" stroke="rgba(225, 225, 225, 1)"></path><path d="M1383.75 904.5 a6.75 6.75 0 1 0 13.5 0 a6.75 6.75 0 1 0 -13.5 0zM1437.75 715.5 a6.75 6.75 0 1 0 13.5 0 a6.75 6.75 0 1 0 -13.5 0z" fill="rgba(225, 225, 225, 1)"></path><path d="M1390.5 850.5L1363.5 823.5L1363.5 796.5L1417.5 742.5" stroke-width="4.5" stroke="rgba(225, 225, 225, 1)"></path><path d="M1383.75 850.5 a6.75 6.75 0 1 0 13.5 0 a6.75 6.75 0 1 0 -13.5 0zM1410.75 742.5 a6.75 6.75 0 1 0 13.5 0 a6.75 6.75 0 1 0 -13.5 0z" fill="rgba(225, 225, 225, 1)"></path><path d="M634.5 364.5L526.5 364.5" stroke-width="4.5" stroke="rgba(225, 225, 225, 1)"></path><path d="M627.75 364.5 a6.75 6.75 0 1 0 13.5 0 a6.75 6.75 0 1 0 -13.5 0zM519.75 364.5 a6.75 6.75 0 1 0 13.5 0 a6.75 6.75 0 1 0 -13.5 0z" fill="rgba(225, 225, 225, 1)"></path><path d="M742.5 904.5L742.5 850.5" stroke-width="4.5" stroke="rgba(225, 225, 225, 1)"></path><path d="M735.75 904.5 a6.75 6.75 0 1 0 13.5 0 a6.75 6.75 0 1 0 -13.5 0zM735.75 850.5 a6.75 6.75 0 1 0 13.5 0 a6.75 6.75 0 1 0 -13.5 0z" fill="rgba(225, 225, 225, 1)"></path><path d="M1228.5 391.5L1174.5 391.5" stroke-width="4.5" stroke="rgba(225, 225, 225, 1)"></path><path d="M1221.75 391.5 a6.75 6.75 0 1 0 13.5 0 a6.75 6.75 0 1 0 -13.5 0zM1167.75 391.5 a6.75 6.75 0 1 0 13.5 0 a6.75 6.75 0 1 0 -13.5 0z" fill="rgba(225, 225, 225, 1)"></path><path d="M1336.5 688.5L1390.5 688.5" stroke-width="4.5" stroke="rgba(225, 225, 225, 1)"></path><path d="M1329.75 688.5 a6.75 6.75 0 1 0 13.5 0 a6.75 6.75 0 1 0 -13.5 0zM1383.75 688.5 a6.75 6.75 0 1 0 13.5 0 a6.75 6.75 0 1 0 -13.5 0z" fill="rgba(225, 225, 225, 1)"></path><path d="M1417.5 931.5L1417.5 904.5L1444.5 877.5" stroke-width="4.5" stroke="rgba(225, 225, 225, 1)"></path><path d="M1410.75 931.5 a6.75 6.75 0 1 0 13.5 0 a6.75 6.75 0 1 0 -13.5 0zM1437.75 877.5 a6.75 6.75 0 1 0 13.5 0 a6.75 6.75 0 1 0 -13.5 0z" fill="rgba(225, 225, 225, 1)"></path><path d="M526.5 661.5L472.5 661.5" stroke-width="4.5" stroke="rgba(225, 225, 225, 1)"></path><path d="M519.75 661.5 a6.75 6.75 0 1 0 13.5 0 a6.75 6.75 0 1 0 -13.5 0zM465.75 661.5 a6.75 6.75 0 1 0 13.5 0 a6.75 6.75 0 1 0 -13.5 0z" fill="rgba(225, 225, 225, 1)"></path><path d="M985.5 904.5L958.5 877.5L931.5 877.5" stroke-width="4.5" stroke="rgba(225, 225, 225, 1)"></path><path d="M978.75 904.5 a6.75 6.75 0 1 0 13.5 0 a6.75 6.75 0 1 0 -13.5 0zM924.75 877.5 a6.75 6.75 0 1 0 13.5 0 a6.75 6.75 0 1 0 -13.5 0z" fill="rgba(225, 225, 225, 1)"></path><path d="M607.5 472.5L634.5 445.5L634.5 418.5" stroke-width="4.5" stroke="rgba(225, 225, 225, 1)"></path><path d="M600.75 472.5 a6.75 6.75 0 1 0 13.5 0 a6.75 6.75 0 1 0 -13.5 0zM627.75 418.5 a6.75 6.75 0 1 0 13.5 0 a6.75 6.75 0 1 0 -13.5 0z" fill="rgba(225, 225, 225, 1)"></path><path d="M769.5 688.5L769.5 661.5L742.5 634.5L715.5 634.5" stroke-width="4.5" stroke="rgba(225, 225, 225, 1)"></path><path d="M762.75 688.5 a6.75 6.75 0 1 0 13.5 0 a6.75 6.75 0 1 0 -13.5 0zM708.75 634.5 a6.75 6.75 0 1 0 13.5 0 a6.75 6.75 0 1 0 -13.5 0z" fill="rgba(225, 225, 225, 1)"></path><path d="M1336.5 526.5L1255.5 526.5L1228.5 553.5L1228.5 580.5" stroke-width="4.5" stroke="rgba(225, 225, 225, 1)"></path><path d="M1329.75 526.5 a6.75 6.75 0 1 0 13.5 0 a6.75 6.75 0 1 0 -13.5 0zM1221.75 580.5 a6.75 6.75 0 1 0 13.5 0 a6.75 6.75 0 1 0 -13.5 0z" fill="rgba(225, 225, 225, 1)"></path><path d="M94.5 850.5L40.5 850.5" stroke-width="4.5" stroke="rgba(225, 225, 225, 1)"></path><path d="M87.75 850.5 a6.75 6.75 0 1 0 13.5 0 a6.75 6.75 0 1 0 -13.5 0zM33.75 850.5 a6.75 6.75 0 1 0 13.5 0 a6.75 6.75 0 1 0 -13.5 0z" fill="rgba(225, 225, 225, 1)"></path><path d="M634.5 283.5L634.5 310.5L607.5 337.5L580.5 337.5" stroke-width="4.5" stroke="rgba(225, 225, 225, 1)"></path><path d="M627.75 283.5 a6.75 6.75 0 1 0 13.5 0 a6.75 6.75 0 1 0 -13.5 0zM573.75 337.5 a6.75 6.75 0 1 0 13.5 0 a6.75 6.75 0 1 0 -13.5 0z" fill="rgba(225, 225, 225, 1)"></path><path d="M1417.5 499.5L1363.5 553.5" stroke-width="4.5" stroke="rgba(225, 225, 225, 1)"></path><path d="M1410.75 499.5 a6.75 6.75 0 1 0 13.5 0 a6.75 6.75 0 1 0 -13.5 0zM1356.75 553.5 a6.75 6.75 0 1 0 13.5 0 a6.75 6.75 0 1 0 -13.5 0z" fill="rgba(225, 225, 225, 1)"></path><path d="M418.5 715.5L445.5 715.5L472.5 742.5" stroke-width="4.5" stroke="rgba(225, 225, 225, 1)"></path><path d="M411.75 715.5 a6.75 6.75 0 1 0 13.5 0 a6.75 6.75 0 1 0 -13.5 0zM465.75 742.5 a6.75 6.75 0 1 0 13.5 0 a6.75 6.75 0 1 0 -13.5 0z" fill="rgba(225, 225, 225, 1)"></path><path d="M877.5 67.5L850.5 67.5L769.5 148.5" stroke-width="4.5" stroke="rgba(225, 225, 225, 1)"></path><path d="M870.75 67.5 a6.75 6.75 0 1 0 13.5 0 a6.75 6.75 0 1 0 -13.5 0zM762.75 148.5 a6.75 6.75 0 1 0 13.5 0 a6.75 6.75 0 1 0 -13.5 0z" fill="rgba(225, 225, 225, 1)"></path><path d="M1390.5 121.5L1390.5 310.5" stroke-width="4.5" stroke="rgba(225, 225, 225, 1)"></path><path d="M1383.75 121.5 a6.75 6.75 0 1 0 13.5 0 a6.75 6.75 0 1 0 -13.5 0zM1383.75 310.5 a6.75 6.75 0 1 0 13.5 0 a6.75 6.75 0 1 0 -13.5 0z" fill="rgba(225, 225, 225, 1)"></path><path d="M13.5 985.5L40.5 985.5L67.5 1012.5" stroke-width="4.5" stroke="rgba(225, 225, 225, 1)"></path><path d="M6.75 985.5 a6.75 6.75 0 1 0 13.5 0 a6.75 6.75 0 1 0 -13.5 0zM60.75 1012.5 a6.75 6.75 0 1 0 13.5 0 a6.75 6.75 0 1 0 -13.5 0z" fill="rgba(225, 225, 225, 1)"></path><path d="M1336.5 283.5L1309.5 256.5L1309.5 229.5L1363.5 175.5L1363.5 148.5" stroke-width="4.5" stroke="rgba(225, 225, 225, 1)"></path><path d="M1329.75 283.5 a6.75 6.75 0 1 0 13.5 0 a6.75 6.75 0 1 0 -13.5 0zM1356.75 148.5 a6.75 6.75 0 1 0 13.5 0 a6.75 6.75 0 1 0 -13.5 0z" fill="rgba(225, 225, 225, 1)"></path><path d="M1039.5 121.5L1012.5 148.5L1012.5 175.5" stroke-width="4.5" stroke="rgba(225, 225, 225, 1)"></path><path d="M1032.75 121.5 a6.75 6.75 0 1 0 13.5 0 a6.75 6.75 0 1 0 -13.5 0zM1005.75 175.5 a6.75 6.75 0 1 0 13.5 0 a6.75 6.75 0 1 0 -13.5 0z" fill="rgba(225, 225, 225, 1)"></path><path d="M742.5 688.5L742.5 742.5" stroke-width="4.5" stroke="rgba(225, 225, 225, 1)"></path><path d="M735.75 688.5 a6.75 6.75 0 1 0 13.5 0 a6.75 6.75 0 1 0 -13.5 0zM735.75 742.5 a6.75 6.75 0 1 0 13.5 0 a6.75 6.75 0 1 0 -13.5 0z" fill="rgba(225, 225, 225, 1)"></path><path d="M607.5 418.5L553.5 472.5" stroke-width="4.5" stroke="rgba(225, 225, 225, 1)"></path><path d="M600.75 418.5 a6.75 6.75 0 1 0 13.5 0 a6.75 6.75 0 1 0 -13.5 0zM546.75 472.5 a6.75 6.75 0 1 0 13.5 0 a6.75 6.75 0 1 0 -13.5 0z" fill="rgba(225, 225, 225, 1)"></path><path d="M661.5 931.5L607.5 985.5" stroke-width="4.5" stroke="rgba(225, 225, 225, 1)"></path><path d="M654.75 931.5 a6.75 6.75 0 1 0 13.5 0 a6.75 6.75 0 1 0 -13.5 0zM600.75 985.5 a6.75 6.75 0 1 0 13.5 0 a6.75 6.75 0 1 0 -13.5 0z" fill="rgba(225, 225, 225, 1)"></path><path d="M904.5 553.5L904.5 499.5" stroke-width="4.5" stroke="rgba(225, 225, 225, 1)"></path><path d="M897.75 553.5 a6.75 6.75 0 1 0 13.5 0 a6.75 6.75 0 1 0 -13.5 0zM897.75 499.5 a6.75 6.75 0 1 0 13.5 0 a6.75 6.75 0 1 0 -13.5 0z" fill="rgba(225, 225, 225, 1)"></path><path d="M661.5 607.5L634.5 607.5L607.5 580.5L607.5 553.5" stroke-width="4.5" stroke="rgba(225, 225, 225, 1)"></path><path d="M654.75 607.5 a6.75 6.75 0 1 0 13.5 0 a6.75 6.75 0 1 0 -13.5 0zM600.75 553.5 a6.75 6.75 0 1 0 13.5 0 a6.75 6.75 0 1 0 -13.5 0z" fill="rgba(225, 225, 225, 1)"></path><path d="M742.5 499.5L742.5 553.5" stroke-width="4.5" stroke="rgba(225, 225, 225, 1)"></path><path d="M735.75 499.5 a6.75 6.75 0 1 0 13.5 0 a6.75 6.75 0 1 0 -13.5 0zM735.75 553.5 a6.75 6.75 0 1 0 13.5 0 a6.75 6.75 0 1 0 -13.5 0z" fill="rgba(225, 225, 225, 1)"></path><path d="M526.5 148.5L526.5 202.5" stroke-width="4.5" stroke="rgba(225, 225, 225, 1)"></path><path d="M519.75 148.5 a6.75 6.75 0 1 0 13.5 0 a6.75 6.75 0 1 0 -13.5 0zM519.75 202.5 a6.75 6.75 0 1 0 13.5 0 a6.75 6.75 0 1 0 -13.5 0z" fill="rgba(225, 225, 225, 1)"></path><path d="M526.5 580.5L526.5 526.5" stroke-width="4.5" stroke="rgba(225, 225, 225, 1)"></path><path d="M519.75 580.5 a6.75 6.75 0 1 0 13.5 0 a6.75 6.75 0 1 0 -13.5 0zM519.75 526.5 a6.75 6.75 0 1 0 13.5 0 a6.75 6.75 0 1 0 -13.5 0z" fill="rgba(225, 225, 225, 1)"></path><path d="M418.5 67.5L418.5 121.5" stroke-width="4.5" stroke="rgba(225, 225, 225, 1)"></path><path d="M411.75 67.5 a6.75 6.75 0 1 0 13.5 0 a6.75 6.75 0 1 0 -13.5 0zM411.75 121.5 a6.75 6.75 0 1 0 13.5 0 a6.75 6.75 0 1 0 -13.5 0z" fill="rgba(225, 225, 225, 1)"></path><path d="M1039.5 877.5L985.5 877.5" stroke-width="4.5" stroke="rgba(225, 225, 225, 1)"></path><path d="M1032.75 877.5 a6.75 6.75 0 1 0 13.5 0 a6.75 6.75 0 1 0 -13.5 0zM978.75 877.5 a6.75 6.75 0 1 0 13.5 0 a6.75 6.75 0 1 0 -13.5 0z" fill="rgba(225, 225, 225, 1)"></path><path d="M337.5 580.5L391.5 526.5" stroke-width="4.5" stroke="rgba(225, 225, 225, 1)"></path><path d="M330.75 580.5 a6.75 6.75 0 1 0 13.5 0 a6.75 6.75 0 1 0 -13.5 0zM384.75 526.5 a6.75 6.75 0 1 0 13.5 0 a6.75 6.75 0 1 0 -13.5 0z" fill="rgba(225, 225, 225, 1)"></path><path d="M580.5 94.5L526.5 94.5" stroke-width="4.5" stroke="rgba(225, 225, 225, 1)"></path><path d="M573.75 94.5 a6.75 6.75 0 1 0 13.5 0 a6.75 6.75 0 1 0 -13.5 0zM519.75 94.5 a6.75 6.75 0 1 0 13.5 0 a6.75 6.75 0 1 0 -13.5 0z" fill="rgba(225, 225, 225, 1)"></path><path d="M40.5 337.5L40.5 391.5" stroke-width="4.5" stroke="rgba(225, 225, 225, 1)"></path><path d="M33.75 337.5 a6.75 6.75 0 1 0 13.5 0 a6.75 6.75 0 1 0 -13.5 0zM33.75 391.5 a6.75 6.75 0 1 0 13.5 0 a6.75 6.75 0 1 0 -13.5 0z" fill="rgba(225, 225, 225, 1)"></path></g></g><defs><mask id="SvgjsMask1038"><rect width="1440" height="1000" fill="#ffffff"></rect></mask><mask id="SvgjsMask1039"><rect width="1440" height="1000" fill="white"></rect><path d="M199.12 580.5 a3.38 3.38 0 1 0 6.76 0 a3.38 3.38 0 1 0 -6.76 0zM199.12 67.5 a3.38 3.38 0 1 0 6.76 0 a3.38 3.38 0 1 0 -6.76 0z" fill="black"></path><path d="M1198.12 445.5 a3.38 3.38 0 1 0 6.76 0 a3.38 3.38 0 1 0 -6.76 0zM1063.12 958.5 a3.38 3.38 0 1 0 6.76 0 a3.38 3.38 0 1 0 -6.76 0z" fill="black"></path><path d="M415.12 580.5 a3.38 3.38 0 1 0 6.76 0 a3.38 3.38 0 1 0 -6.76 0zM172.12 850.5 a3.38 3.38 0 1 0 6.76 0 a3.38 3.38 0 1 0 -6.76 0z" fill="black"></path><path d="M631.12 850.5 a3.38 3.38 0 1 0 6.76 0 a3.38 3.38 0 1 0 -6.76 0zM226.12 337.5 a3.38 3.38 0 1 0 6.76 0 a3.38 3.38 0 1 0 -6.76 0z" fill="black"></path><path d="M1198.12 850.5 a3.38 3.38 0 1 0 6.76 0 a3.38 3.38 0 1 0 -6.76 0zM1441.12 1012.5 a3.38 3.38 0 1 0 6.76 0 a3.38 3.38 0 1 0 -6.76 0z" fill="black"></path><path d="M1387.12 13.5 a3.38 3.38 0 1 0 6.76 0 a3.38 3.38 0 1 0 -6.76 0zM874.12 13.5 a3.38 3.38 0 1 0 6.76 0 a3.38 3.38 0 1 0 -6.76 0z" fill="black"></path><path d="M1036.12 40.5 a3.38 3.38 0 1 0 6.76 0 a3.38 3.38 0 1 0 -6.76 0zM523.12 121.5 a3.38 3.38 0 1 0 6.76 0 a3.38 3.38 0 1 0 -6.76 0z" fill="black"></path><path d="M145.12 499.5 a3.38 3.38 0 1 0 6.76 0 a3.38 3.38 0 1 0 -6.76 0zM64.12 13.5 a3.38 3.38 0 1 0 6.76 0 a3.38 3.38 0 1 0 -6.76 0z" fill="black"></path><path d="M1144.12 418.5 a3.38 3.38 0 1 0 6.76 0 a3.38 3.38 0 1 0 -6.76 0zM1441.12 175.5 a3.38 3.38 0 1 0 6.76 0 a3.38 3.38 0 1 0 -6.76 0z" fill="black"></path><path d="M442.12 310.5 a3.38 3.38 0 1 0 6.76 0 a3.38 3.38 0 1 0 -6.76 0zM955.12 283.5 a3.38 3.38 0 1 0 6.76 0 a3.38 3.38 0 1 0 -6.76 0z" fill="black"></path><path d="M388.12 256.5 a3.38 3.38 0 1 0 6.76 0 a3.38 3.38 0 1 0 -6.76 0zM199.12 13.5 a3.38 3.38 0 1 0 6.76 0 a3.38 3.38 0 1 0 -6.76 0z" fill="black"></path><path d="M1009.12 310.5 a3.38 3.38 0 1 0 6.76 0 a3.38 3.38 0 1 0 -6.76 0zM496.12 688.5 a3.38 3.38 0 1 0 6.76 0 a3.38 3.38 0 1 0 -6.76 0z" fill="black"></path><path d="M1387.12 958.5 a3.38 3.38 0 1 0 6.76 0 a3.38 3.38 0 1 0 -6.76 0zM1441.12 958.5 a3.38 3.38 0 1 0 6.76 0 a3.38 3.38 0 1 0 -6.76 0z" fill="black"></path><path d="M1333.12 1012.5 a3.38 3.38 0 1 0 6.76 0 a3.38 3.38 0 1 0 -6.76 0zM820.12 877.5 a3.38 3.38 0 1 0 6.76 0 a3.38 3.38 0 1 0 -6.76 0z" fill="black"></path><path d="M1171.12 904.5 a3.38 3.38 0 1 0 6.76 0 a3.38 3.38 0 1 0 -6.76 0zM1090.12 904.5 a3.38 3.38 0 1 0 6.76 0 a3.38 3.38 0 1 0 -6.76 0z" fill="black"></path><path d="M280.12 499.5 a3.38 3.38 0 1 0 6.76 0 a3.38 3.38 0 1 0 -6.76 0zM226.12 499.5 a3.38 3.38 0 1 0 6.76 0 a3.38 3.38 0 1 0 -6.76 0z" fill="black"></path><path d="M496.12 877.5 a3.38 3.38 0 1 0 6.76 0 a3.38 3.38 0 1 0 -6.76 0zM10.12 904.5 a3.38 3.38 0 1 0 6.76 0 a3.38 3.38 0 1 0 -6.76 0z" fill="black"></path><path d="M172.12 958.5 a3.38 3.38 0 1 0 6.76 0 a3.38 3.38 0 1 0 -6.76 0zM253.12 877.5 a3.38 3.38 0 1 0 6.76 0 a3.38 3.38 0 1 0 -6.76 0z" fill="black"></path><path d="M64.12 40.5 a3.38 3.38 0 1 0 6.76 0 a3.38 3.38 0 1 0 -6.76 0zM10.12 13.5 a3.38 3.38 0 1 0 6.76 0 a3.38 3.38 0 1 0 -6.76 0z" fill="black"></path><path d="M793.12 958.5 a3.38 3.38 0 1 0 6.76 0 a3.38 3.38 0 1 0 -6.76 0zM631.12 715.5 a3.38 3.38 0 1 0 6.76 0 a3.38 3.38 0 1 0 -6.76 0z" fill="black"></path><path d="M685.12 877.5 a3.38 3.38 0 1 0 6.76 0 a3.38 3.38 0 1 0 -6.76 0zM577.12 769.5 a3.38 3.38 0 1 0 6.76 0 a3.38 3.38 0 1 0 -6.76 0z" fill="black"></path><path d="M847.12 229.5 a3.38 3.38 0 1 0 6.76 0 a3.38 3.38 0 1 0 -6.76 0zM955.12 67.5 a3.38 3.38 0 1 0 6.76 0 a3.38 3.38 0 1 0 -6.76 0z" fill="black"></path><path d="M496.12 391.5 a3.38 3.38 0 1 0 6.76 0 a3.38 3.38 0 1 0 -6.76 0zM820.12 472.5 a3.38 3.38 0 1 0 6.76 0 a3.38 3.38 0 1 0 -6.76 0z" fill="black"></path><path d="M982.12 175.5 a3.38 3.38 0 1 0 6.76 0 a3.38 3.38 0 1 0 -6.76 0zM712.12 310.5 a3.38 3.38 0 1 0 6.76 0 a3.38 3.38 0 1 0 -6.76 0z" fill="black"></path><path d="M1117.12 877.5 a3.38 3.38 0 1 0 6.76 0 a3.38 3.38 0 1 0 -6.76 0zM1306.12 445.5 a3.38 3.38 0 1 0 6.76 0 a3.38 3.38 0 1 0 -6.76 0z" fill="black"></path><path d="M442.12 229.5 a3.38 3.38 0 1 0 6.76 0 a3.38 3.38 0 1 0 -6.76 0zM604.12 229.5 a3.38 3.38 0 1 0 6.76 0 a3.38 3.38 0 1 0 -6.76 0z" fill="black"></path><path d="M1036.12 931.5 a3.38 3.38 0 1 0 6.76 0 a3.38 3.38 0 1 0 -6.76 0zM658.12 688.5 a3.38 3.38 0 1 0 6.76 0 a3.38 3.38 0 1 0 -6.76 0z" fill="black"></path><path d="M1171.12 256.5 a3.38 3.38 0 1 0 6.76 0 a3.38 3.38 0 1 0 -6.76 0zM1414.12 364.5 a3.38 3.38 0 1 0 6.76 0 a3.38 3.38 0 1 0 -6.76 0z" fill="black"></path><path d="M280.12 688.5 a3.38 3.38 0 1 0 6.76 0 a3.38 3.38 0 1 0 -6.76 0zM226.12 364.5 a3.38 3.38 0 1 0 6.76 0 a3.38 3.38 0 1 0 -6.76 0z" fill="black"></path><path d="M901.12 472.5 a3.38 3.38 0 1 0 6.76 0 a3.38 3.38 0 1 0 -6.76 0zM982.12 958.5 a3.38 3.38 0 1 0 6.76 0 a3.38 3.38 0 1 0 -6.76 0z" fill="black"></path><path d="M334.12 175.5 a3.38 3.38 0 1 0 6.76 0 a3.38 3.38 0 1 0 -6.76 0zM334.12 40.5 a3.38 3.38 0 1 0 6.76 0 a3.38 3.38 0 1 0 -6.76 0z" fill="black"></path><path d="M982.12 445.5 a3.38 3.38 0 1 0 6.76 0 a3.38 3.38 0 1 0 -6.76 0zM1171.12 445.5 a3.38 3.38 0 1 0 6.76 0 a3.38 3.38 0 1 0 -6.76 0z" fill="black"></path><path d="M550.12 337.5 a3.38 3.38 0 1 0 6.76 0 a3.38 3.38 0 1 0 -6.76 0zM496.12 283.5 a3.38 3.38 0 1 0 6.76 0 a3.38 3.38 0 1 0 -6.76 0z" fill="black"></path><path d="M334.12 742.5 a3.38 3.38 0 1 0 6.76 0 a3.38 3.38 0 1 0 -6.76 0zM334.12 823.5 a3.38 3.38 0 1 0 6.76 0 a3.38 3.38 0 1 0 -6.76 0z" fill="black"></path><path d="M1063.12 121.5 a3.38 3.38 0 1 0 6.76 0 a3.38 3.38 0 1 0 -6.76 0zM1441.12 13.5 a3.38 3.38 0 1 0 6.76 0 a3.38 3.38 0 1 0 -6.76 0z" fill="black"></path><path d="M10.12 823.5 a3.38 3.38 0 1 0 6.76 0 a3.38 3.38 0 1 0 -6.76 0zM307.12 823.5 a3.38 3.38 0 1 0 6.76 0 a3.38 3.38 0 1 0 -6.76 0z" fill="black"></path><path d="M1252.12 310.5 a3.38 3.38 0 1 0 6.76 0 a3.38 3.38 0 1 0 -6.76 0zM1441.12 67.5 a3.38 3.38 0 1 0 6.76 0 a3.38 3.38 0 1 0 -6.76 0z" fill="black"></path><path d="M1063.12 418.5 a3.38 3.38 0 1 0 6.76 0 a3.38 3.38 0 1 0 -6.76 0zM1144.12 445.5 a3.38 3.38 0 1 0 6.76 0 a3.38 3.38 0 1 0 -6.76 0z" fill="black"></path><path d="M1117.12 94.5 a3.38 3.38 0 1 0 6.76 0 a3.38 3.38 0 1 0 -6.76 0zM982.12 229.5 a3.38 3.38 0 1 0 6.76 0 a3.38 3.38 0 1 0 -6.76 0z" fill="black"></path><path d="M37.12 715.5 a3.38 3.38 0 1 0 6.76 0 a3.38 3.38 0 1 0 -6.76 0zM226.12 796.5 a3.38 3.38 0 1 0 6.76 0 a3.38 3.38 0 1 0 -6.76 0z" fill="black"></path><path d="M1225.12 202.5 a3.38 3.38 0 1 0 6.76 0 a3.38 3.38 0 1 0 -6.76 0zM1225.12 337.5 a3.38 3.38 0 1 0 6.76 0 a3.38 3.38 0 1 0 -6.76 0z" fill="black"></path><path d="M982.12 499.5 a3.38 3.38 0 1 0 6.76 0 a3.38 3.38 0 1 0 -6.76 0zM1036.12 904.5 a3.38 3.38 0 1 0 6.76 0 a3.38 3.38 0 1 0 -6.76 0z" fill="black"></path><path d="M658.12 823.5 a3.38 3.38 0 1 0 6.76 0 a3.38 3.38 0 1 0 -6.76 0zM604.12 769.5 a3.38 3.38 0 1 0 6.76 0 a3.38 3.38 0 1 0 -6.76 0z" fill="black"></path><path d="M901.12 823.5 a3.38 3.38 0 1 0 6.76 0 a3.38 3.38 0 1 0 -6.76 0zM1036.12 823.5 a3.38 3.38 0 1 0 6.76 0 a3.38 3.38 0 1 0 -6.76 0z" fill="black"></path><path d="M91.12 175.5 a3.38 3.38 0 1 0 6.76 0 a3.38 3.38 0 1 0 -6.76 0zM91.12 688.5 a3.38 3.38 0 1 0 6.76 0 a3.38 3.38 0 1 0 -6.76 0z" fill="black"></path><path d="M874.12 661.5 a3.38 3.38 0 1 0 6.76 0 a3.38 3.38 0 1 0 -6.76 0zM1171.12 175.5 a3.38 3.38 0 1 0 6.76 0 a3.38 3.38 0 1 0 -6.76 0z" fill="black"></path><path d="M901.12 121.5 a3.38 3.38 0 1 0 6.76 0 a3.38 3.38 0 1 0 -6.76 0zM1009.12 94.5 a3.38 3.38 0 1 0 6.76 0 a3.38 3.38 0 1 0 -6.76 0z" fill="black"></path><path d="M469.12 67.5 a3.38 3.38 0 1 0 6.76 0 a3.38 3.38 0 1 0 -6.76 0zM496.12 580.5 a3.38 3.38 0 1 0 6.76 0 a3.38 3.38 0 1 0 -6.76 0z" fill="black"></path><path d="M10.12 472.5 a3.38 3.38 0 1 0 6.76 0 a3.38 3.38 0 1 0 -6.76 0zM10.12 688.5 a3.38 3.38 0 1 0 6.76 0 a3.38 3.38 0 1 0 -6.76 0z" fill="black"></path><path d="M388.12 283.5 a3.38 3.38 0 1 0 6.76 0 a3.38 3.38 0 1 0 -6.76 0zM469.12 256.5 a3.38 3.38 0 1 0 6.76 0 a3.38 3.38 0 1 0 -6.76 0z" fill="black"></path><path d="M1225.12 769.5 a3.38 3.38 0 1 0 6.76 0 a3.38 3.38 0 1 0 -6.76 0zM1144.12 877.5 a3.38 3.38 0 1 0 6.76 0 a3.38 3.38 0 1 0 -6.76 0z" fill="black"></path><path d="M172.12 580.5 a3.38 3.38 0 1 0 6.76 0 a3.38 3.38 0 1 0 -6.76 0zM172.12 499.5 a3.38 3.38 0 1 0 6.76 0 a3.38 3.38 0 1 0 -6.76 0z" fill="black"></path><path d="M334.12 661.5 a3.38 3.38 0 1 0 6.76 0 a3.38 3.38 0 1 0 -6.76 0zM415.12 823.5 a3.38 3.38 0 1 0 6.76 0 a3.38 3.38 0 1 0 -6.76 0z" fill="black"></path><path d="M37.12 553.5 a3.38 3.38 0 1 0 6.76 0 a3.38 3.38 0 1 0 -6.76 0zM10.12 661.5 a3.38 3.38 0 1 0 6.76 0 a3.38 3.38 0 1 0 -6.76 0z" fill="black"></path><path d="M1414.12 580.5 a3.38 3.38 0 1 0 6.76 0 a3.38 3.38 0 1 0 -6.76 0zM1144.12 796.5 a3.38 3.38 0 1 0 6.76 0 a3.38 3.38 0 1 0 -6.76 0z" fill="black"></path><path d="M982.12 850.5 a3.38 3.38 0 1 0 6.76 0 a3.38 3.38 0 1 0 -6.76 0zM901.12 850.5 a3.38 3.38 0 1 0 6.76 0 a3.38 3.38 0 1 0 -6.76 0z" fill="black"></path><path d="M1414.12 94.5 a3.38 3.38 0 1 0 6.76 0 a3.38 3.38 0 1 0 -6.76 0zM1414.12 337.5 a3.38 3.38 0 1 0 6.76 0 a3.38 3.38 0 1 0 -6.76 0z" fill="black"></path><path d="M577.12 499.5 a3.38 3.38 0 1 0 6.76 0 a3.38 3.38 0 1 0 -6.76 0zM361.12 283.5 a3.38 3.38 0 1 0 6.76 0 a3.38 3.38 0 1 0 -6.76 0z" fill="black"></path><path d="M199.12 607.5 a3.38 3.38 0 1 0 6.76 0 a3.38 3.38 0 1 0 -6.76 0zM253.12 607.5 a3.38 3.38 0 1 0 6.76 0 a3.38 3.38 0 1 0 -6.76 0z" fill="black"></path><path d="M1225.12 715.5 a3.38 3.38 0 1 0 6.76 0 a3.38 3.38 0 1 0 -6.76 0zM1441.12 607.5 a3.38 3.38 0 1 0 6.76 0 a3.38 3.38 0 1 0 -6.76 0z" fill="black"></path><path d="M1441.12 661.5 a3.38 3.38 0 1 0 6.76 0 a3.38 3.38 0 1 0 -6.76 0zM1252.12 661.5 a3.38 3.38 0 1 0 6.76 0 a3.38 3.38 0 1 0 -6.76 0z" fill="black"></path><path d="M1279.12 472.5 a3.38 3.38 0 1 0 6.76 0 a3.38 3.38 0 1 0 -6.76 0zM1144.12 769.5 a3.38 3.38 0 1 0 6.76 0 a3.38 3.38 0 1 0 -6.76 0z" fill="black"></path><path d="M37.12 229.5 a3.38 3.38 0 1 0 6.76 0 a3.38 3.38 0 1 0 -6.76 0zM37.12 40.5 a3.38 3.38 0 1 0 6.76 0 a3.38 3.38 0 1 0 -6.76 0z" fill="black"></path><path d="M1333.12 634.5 a3.38 3.38 0 1 0 6.76 0 a3.38 3.38 0 1 0 -6.76 0zM1441.12 634.5 a3.38 3.38 0 1 0 6.76 0 a3.38 3.38 0 1 0 -6.76 0z" fill="black"></path><path d="M955.12 310.5 a3.38 3.38 0 1 0 6.76 0 a3.38 3.38 0 1 0 -6.76 0zM820.12 445.5 a3.38 3.38 0 1 0 6.76 0 a3.38 3.38 0 1 0 -6.76 0z" fill="black"></path><path d="M226.12 283.5 a3.38 3.38 0 1 0 6.76 0 a3.38 3.38 0 1 0 -6.76 0zM442.12 40.5 a3.38 3.38 0 1 0 6.76 0 a3.38 3.38 0 1 0 -6.76 0z" fill="black"></path><path d="M577.12 823.5 a3.38 3.38 0 1 0 6.76 0 a3.38 3.38 0 1 0 -6.76 0zM928.12 1012.5 a3.38 3.38 0 1 0 6.76 0 a3.38 3.38 0 1 0 -6.76 0z" fill="black"></path><path d="M685.12 499.5 a3.38 3.38 0 1 0 6.76 0 a3.38 3.38 0 1 0 -6.76 0zM658.12 418.5 a3.38 3.38 0 1 0 6.76 0 a3.38 3.38 0 1 0 -6.76 0z" fill="black"></path><path d="M712.12 445.5 a3.38 3.38 0 1 0 6.76 0 a3.38 3.38 0 1 0 -6.76 0zM793.12 499.5 a3.38 3.38 0 1 0 6.76 0 a3.38 3.38 0 1 0 -6.76 0z" fill="black"></path><path d="M766.12 715.5 a3.38 3.38 0 1 0 6.76 0 a3.38 3.38 0 1 0 -6.76 0zM766.12 580.5 a3.38 3.38 0 1 0 6.76 0 a3.38 3.38 0 1 0 -6.76 0z" fill="black"></path><path d="M1009.12 742.5 a3.38 3.38 0 1 0 6.76 0 a3.38 3.38 0 1 0 -6.76 0zM1009.12 796.5 a3.38 3.38 0 1 0 6.76 0 a3.38 3.38 0 1 0 -6.76 0z" fill="black"></path><path d="M253.12 796.5 a3.38 3.38 0 1 0 6.76 0 a3.38 3.38 0 1 0 -6.76 0zM388.12 607.5 a3.38 3.38 0 1 0 6.76 0 a3.38 3.38 0 1 0 -6.76 0z" fill="black"></path><path d="M1198.12 67.5 a3.38 3.38 0 1 0 6.76 0 a3.38 3.38 0 1 0 -6.76 0zM1144.12 67.5 a3.38 3.38 0 1 0 6.76 0 a3.38 3.38 0 1 0 -6.76 0z" fill="black"></path><path d="M118.12 175.5 a3.38 3.38 0 1 0 6.76 0 a3.38 3.38 0 1 0 -6.76 0zM91.12 40.5 a3.38 3.38 0 1 0 6.76 0 a3.38 3.38 0 1 0 -6.76 0z" fill="black"></path><path d="M334.12 202.5 a3.38 3.38 0 1 0 6.76 0 a3.38 3.38 0 1 0 -6.76 0zM253.12 283.5 a3.38 3.38 0 1 0 6.76 0 a3.38 3.38 0 1 0 -6.76 0z" fill="black"></path><path d="M874.12 634.5 a3.38 3.38 0 1 0 6.76 0 a3.38 3.38 0 1 0 -6.76 0zM847.12 715.5 a3.38 3.38 0 1 0 6.76 0 a3.38 3.38 0 1 0 -6.76 0z" fill="black"></path><path d="M874.12 94.5 a3.38 3.38 0 1 0 6.76 0 a3.38 3.38 0 1 0 -6.76 0zM496.12 13.5 a3.38 3.38 0 1 0 6.76 0 a3.38 3.38 0 1 0 -6.76 0z" fill="black"></path><path d="M1009.12 472.5 a3.38 3.38 0 1 0 6.76 0 a3.38 3.38 0 1 0 -6.76 0zM1063.12 553.5 a3.38 3.38 0 1 0 6.76 0 a3.38 3.38 0 1 0 -6.76 0z" fill="black"></path><path d="M1225.12 526.5 a3.38 3.38 0 1 0 6.76 0 a3.38 3.38 0 1 0 -6.76 0zM1441.12 445.5 a3.38 3.38 0 1 0 6.76 0 a3.38 3.38 0 1 0 -6.76 0z" fill="black"></path><path d="M361.12 715.5 a3.38 3.38 0 1 0 6.76 0 a3.38 3.38 0 1 0 -6.76 0zM469.12 769.5 a3.38 3.38 0 1 0 6.76 0 a3.38 3.38 0 1 0 -6.76 0z" fill="black"></path><path d="M1306.12 769.5 a3.38 3.38 0 1 0 6.76 0 a3.38 3.38 0 1 0 -6.76 0zM1225.12 850.5 a3.38 3.38 0 1 0 6.76 0 a3.38 3.38 0 1 0 -6.76 0z" fill="black"></path><path d="M1360.12 931.5 a3.38 3.38 0 1 0 6.76 0 a3.38 3.38 0 1 0 -6.76 0zM1306.12 796.5 a3.38 3.38 0 1 0 6.76 0 a3.38 3.38 0 1 0 -6.76 0z" fill="black"></path><path d="M523.12 958.5 a3.38 3.38 0 1 0 6.76 0 a3.38 3.38 0 1 0 -6.76 0zM739.12 1012.5 a3.38 3.38 0 1 0 6.76 0 a3.38 3.38 0 1 0 -6.76 0z" fill="black"></path><path d="M901.12 40.5 a3.38 3.38 0 1 0 6.76 0 a3.38 3.38 0 1 0 -6.76 0zM631.12 13.5 a3.38 3.38 0 1 0 6.76 0 a3.38 3.38 0 1 0 -6.76 0z" fill="black"></path><path d="M1036.12 391.5 a3.38 3.38 0 1 0 6.76 0 a3.38 3.38 0 1 0 -6.76 0zM1306.12 67.5 a3.38 3.38 0 1 0 6.76 0 a3.38 3.38 0 1 0 -6.76 0z" fill="black"></path><path d="M1333.12 796.5 a3.38 3.38 0 1 0 6.76 0 a3.38 3.38 0 1 0 -6.76 0zM1441.12 688.5 a3.38 3.38 0 1 0 6.76 0 a3.38 3.38 0 1 0 -6.76 0z" fill="black"></path><path d="M469.12 1012.5 a3.38 3.38 0 1 0 6.76 0 a3.38 3.38 0 1 0 -6.76 0zM388.12 1012.5 a3.38 3.38 0 1 0 6.76 0 a3.38 3.38 0 1 0 -6.76 0z" fill="black"></path><path d="M253.12 958.5 a3.38 3.38 0 1 0 6.76 0 a3.38 3.38 0 1 0 -6.76 0zM10.12 850.5 a3.38 3.38 0 1 0 6.76 0 a3.38 3.38 0 1 0 -6.76 0z" fill="black"></path><path d="M415.12 391.5 a3.38 3.38 0 1 0 6.76 0 a3.38 3.38 0 1 0 -6.76 0zM523.12 337.5 a3.38 3.38 0 1 0 6.76 0 a3.38 3.38 0 1 0 -6.76 0z" fill="black"></path><path d="M1063.12 94.5 a3.38 3.38 0 1 0 6.76 0 a3.38 3.38 0 1 0 -6.76 0zM982.12 67.5 a3.38 3.38 0 1 0 6.76 0 a3.38 3.38 0 1 0 -6.76 0z" fill="black"></path><path d="M766.12 958.5 a3.38 3.38 0 1 0 6.76 0 a3.38 3.38 0 1 0 -6.76 0zM712.12 850.5 a3.38 3.38 0 1 0 6.76 0 a3.38 3.38 0 1 0 -6.76 0z" fill="black"></path><path d="M91.12 796.5 a3.38 3.38 0 1 0 6.76 0 a3.38 3.38 0 1 0 -6.76 0zM91.12 742.5 a3.38 3.38 0 1 0 6.76 0 a3.38 3.38 0 1 0 -6.76 0z" fill="black"></path><path d="M91.12 904.5 a3.38 3.38 0 1 0 6.76 0 a3.38 3.38 0 1 0 -6.76 0zM226.12 877.5 a3.38 3.38 0 1 0 6.76 0 a3.38 3.38 0 1 0 -6.76 0z" fill="black"></path><path d="M1144.12 121.5 a3.38 3.38 0 1 0 6.76 0 a3.38 3.38 0 1 0 -6.76 0zM982.12 310.5 a3.38 3.38 0 1 0 6.76 0 a3.38 3.38 0 1 0 -6.76 0z" fill="black"></path><path d="M1009.12 526.5 a3.38 3.38 0 1 0 6.76 0 a3.38 3.38 0 1 0 -6.76 0zM874.12 823.5 a3.38 3.38 0 1 0 6.76 0 a3.38 3.38 0 1 0 -6.76 0z" fill="black"></path><path d="M1036.12 661.5 a3.38 3.38 0 1 0 6.76 0 a3.38 3.38 0 1 0 -6.76 0zM1036.12 553.5 a3.38 3.38 0 1 0 6.76 0 a3.38 3.38 0 1 0 -6.76 0z" fill="black"></path><path d="M1441.12 499.5 a3.38 3.38 0 1 0 6.76 0 a3.38 3.38 0 1 0 -6.76 0zM1441.12 580.5 a3.38 3.38 0 1 0 6.76 0 a3.38 3.38 0 1 0 -6.76 0z" fill="black"></path><path d="M901.12 202.5 a3.38 3.38 0 1 0 6.76 0 a3.38 3.38 0 1 0 -6.76 0zM766.12 310.5 a3.38 3.38 0 1 0 6.76 0 a3.38 3.38 0 1 0 -6.76 0z" fill="black"></path><path d="M928.12 445.5 a3.38 3.38 0 1 0 6.76 0 a3.38 3.38 0 1 0 -6.76 0zM901.12 634.5 a3.38 3.38 0 1 0 6.76 0 a3.38 3.38 0 1 0 -6.76 0z" fill="black"></path><path d="M64.12 661.5 a3.38 3.38 0 1 0 6.76 0 a3.38 3.38 0 1 0 -6.76 0zM64.12 580.5 a3.38 3.38 0 1 0 6.76 0 a3.38 3.38 0 1 0 -6.76 0z" fill="black"></path><path d="M496.12 931.5 a3.38 3.38 0 1 0 6.76 0 a3.38 3.38 0 1 0 -6.76 0zM415.12 985.5 a3.38 3.38 0 1 0 6.76 0 a3.38 3.38 0 1 0 -6.76 0z" fill="black"></path><path d="M1333.12 958.5 a3.38 3.38 0 1 0 6.76 0 a3.38 3.38 0 1 0 -6.76 0zM1306.12 931.5 a3.38 3.38 0 1 0 6.76 0 a3.38 3.38 0 1 0 -6.76 0z" fill="black"></path><path d="M307.12 553.5 a3.38 3.38 0 1 0 6.76 0 a3.38 3.38 0 1 0 -6.76 0zM307.12 634.5 a3.38 3.38 0 1 0 6.76 0 a3.38 3.38 0 1 0 -6.76 0z" fill="black"></path><path d="M145.12 634.5 a3.38 3.38 0 1 0 6.76 0 a3.38 3.38 0 1 0 -6.76 0zM280.12 769.5 a3.38 3.38 0 1 0 6.76 0 a3.38 3.38 0 1 0 -6.76 0z" fill="black"></path><path d="M334.12 607.5 a3.38 3.38 0 1 0 6.76 0 a3.38 3.38 0 1 0 -6.76 0zM415.12 553.5 a3.38 3.38 0 1 0 6.76 0 a3.38 3.38 0 1 0 -6.76 0z" fill="black"></path><path d="M226.12 67.5 a3.38 3.38 0 1 0 6.76 0 a3.38 3.38 0 1 0 -6.76 0zM226.12 256.5 a3.38 3.38 0 1 0 6.76 0 a3.38 3.38 0 1 0 -6.76 0z" fill="black"></path><path d="M1252.12 715.5 a3.38 3.38 0 1 0 6.76 0 a3.38 3.38 0 1 0 -6.76 0zM1171.12 823.5 a3.38 3.38 0 1 0 6.76 0 a3.38 3.38 0 1 0 -6.76 0z" fill="black"></path><path d="M118.12 121.5 a3.38 3.38 0 1 0 6.76 0 a3.38 3.38 0 1 0 -6.76 0zM145.12 472.5 a3.38 3.38 0 1 0 6.76 0 a3.38 3.38 0 1 0 -6.76 0z" fill="black"></path><path d="M550.12 877.5 a3.38 3.38 0 1 0 6.76 0 a3.38 3.38 0 1 0 -6.76 0zM469.12 823.5 a3.38 3.38 0 1 0 6.76 0 a3.38 3.38 0 1 0 -6.76 0z" fill="black"></path><path d="M1306.12 337.5 a3.38 3.38 0 1 0 6.76 0 a3.38 3.38 0 1 0 -6.76 0zM1387.12 94.5 a3.38 3.38 0 1 0 6.76 0 a3.38 3.38 0 1 0 -6.76 0z" fill="black"></path><path d="M388.12 337.5 a3.38 3.38 0 1 0 6.76 0 a3.38 3.38 0 1 0 -6.76 0zM334.12 337.5 a3.38 3.38 0 1 0 6.76 0 a3.38 3.38 0 1 0 -6.76 0z" fill="black"></path><path d="M64.12 202.5 a3.38 3.38 0 1 0 6.76 0 a3.38 3.38 0 1 0 -6.76 0zM91.12 526.5 a3.38 3.38 0 1 0 6.76 0 a3.38 3.38 0 1 0 -6.76 0z" fill="black"></path><path d="M307.12 904.5 a3.38 3.38 0 1 0 6.76 0 a3.38 3.38 0 1 0 -6.76 0zM253.12 931.5 a3.38 3.38 0 1 0 6.76 0 a3.38 3.38 0 1 0 -6.76 0z" fill="black"></path><path d="M253.12 661.5 a3.38 3.38 0 1 0 6.76 0 a3.38 3.38 0 1 0 -6.76 0zM145.12 526.5 a3.38 3.38 0 1 0 6.76 0 a3.38 3.38 0 1 0 -6.76 0z" fill="black"></path><path d="M1090.12 202.5 a3.38 3.38 0 1 0 6.76 0 a3.38 3.38 0 1 0 -6.76 0zM1279.12 67.5 a3.38 3.38 0 1 0 6.76 0 a3.38 3.38 0 1 0 -6.76 0z" fill="black"></path><path d="M118.12 688.5 a3.38 3.38 0 1 0 6.76 0 a3.38 3.38 0 1 0 -6.76 0zM172.12 688.5 a3.38 3.38 0 1 0 6.76 0 a3.38 3.38 0 1 0 -6.76 0z" fill="black"></path><path d="M496.12 1012.5 a3.38 3.38 0 1 0 6.76 0 a3.38 3.38 0 1 0 -6.76 0zM469.12 958.5 a3.38 3.38 0 1 0 6.76 0 a3.38 3.38 0 1 0 -6.76 0z" fill="black"></path><path d="M766.12 877.5 a3.38 3.38 0 1 0 6.76 0 a3.38 3.38 0 1 0 -6.76 0zM793.12 931.5 a3.38 3.38 0 1 0 6.76 0 a3.38 3.38 0 1 0 -6.76 0z" fill="black"></path><path d="M577.12 310.5 a3.38 3.38 0 1 0 6.76 0 a3.38 3.38 0 1 0 -6.76 0zM523.12 283.5 a3.38 3.38 0 1 0 6.76 0 a3.38 3.38 0 1 0 -6.76 0z" fill="black"></path><path d="M10.12 796.5 a3.38 3.38 0 1 0 6.76 0 a3.38 3.38 0 1 0 -6.76 0zM10.12 715.5 a3.38 3.38 0 1 0 6.76 0 a3.38 3.38 0 1 0 -6.76 0z" fill="black"></path><path d="M280.12 229.5 a3.38 3.38 0 1 0 6.76 0 a3.38 3.38 0 1 0 -6.76 0zM172.12 67.5 a3.38 3.38 0 1 0 6.76 0 a3.38 3.38 0 1 0 -6.76 0z" fill="black"></path><path d="M10.12 121.5 a3.38 3.38 0 1 0 6.76 0 a3.38 3.38 0 1 0 -6.76 0zM37.12 472.5 a3.38 3.38 0 1 0 6.76 0 a3.38 3.38 0 1 0 -6.76 0z" fill="black"></path><path d="M1360.12 229.5 a3.38 3.38 0 1 0 6.76 0 a3.38 3.38 0 1 0 -6.76 0zM1333.12 337.5 a3.38 3.38 0 1 0 6.76 0 a3.38 3.38 0 1 0 -6.76 0z" fill="black"></path><path d="M118.12 796.5 a3.38 3.38 0 1 0 6.76 0 a3.38 3.38 0 1 0 -6.76 0zM118.12 742.5 a3.38 3.38 0 1 0 6.76 0 a3.38 3.38 0 1 0 -6.76 0z" fill="black"></path><path d="M550.12 688.5 a3.38 3.38 0 1 0 6.76 0 a3.38 3.38 0 1 0 -6.76 0zM604.12 634.5 a3.38 3.38 0 1 0 6.76 0 a3.38 3.38 0 1 0 -6.76 0z" fill="black"></path><path d="M766.12 742.5 a3.38 3.38 0 1 0 6.76 0 a3.38 3.38 0 1 0 -6.76 0zM793.12 796.5 a3.38 3.38 0 1 0 6.76 0 a3.38 3.38 0 1 0 -6.76 0z" fill="black"></path><path d="M604.12 526.5 a3.38 3.38 0 1 0 6.76 0 a3.38 3.38 0 1 0 -6.76 0zM793.12 472.5 a3.38 3.38 0 1 0 6.76 0 a3.38 3.38 0 1 0 -6.76 0z" fill="black"></path><path d="M712.12 148.5 a3.38 3.38 0 1 0 6.76 0 a3.38 3.38 0 1 0 -6.76 0zM658.12 67.5 a3.38 3.38 0 1 0 6.76 0 a3.38 3.38 0 1 0 -6.76 0z" fill="black"></path><path d="M1306.12 742.5 a3.38 3.38 0 1 0 6.76 0 a3.38 3.38 0 1 0 -6.76 0zM1414.12 688.5 a3.38 3.38 0 1 0 6.76 0 a3.38 3.38 0 1 0 -6.76 0z" fill="black"></path><path d="M1117.12 40.5 a3.38 3.38 0 1 0 6.76 0 a3.38 3.38 0 1 0 -6.76 0zM1036.12 67.5 a3.38 3.38 0 1 0 6.76 0 a3.38 3.38 0 1 0 -6.76 0z" fill="black"></path><path d="M577.12 418.5 a3.38 3.38 0 1 0 6.76 0 a3.38 3.38 0 1 0 -6.76 0zM334.12 364.5 a3.38 3.38 0 1 0 6.76 0 a3.38 3.38 0 1 0 -6.76 0z" fill="black"></path><path d="M550.12 553.5 a3.38 3.38 0 1 0 6.76 0 a3.38 3.38 0 1 0 -6.76 0zM523.12 688.5 a3.38 3.38 0 1 0 6.76 0 a3.38 3.38 0 1 0 -6.76 0z" fill="black"></path><path d="M766.12 94.5 a3.38 3.38 0 1 0 6.76 0 a3.38 3.38 0 1 0 -6.76 0zM685.12 67.5 a3.38 3.38 0 1 0 6.76 0 a3.38 3.38 0 1 0 -6.76 0z" fill="black"></path><path d="M874.12 526.5 a3.38 3.38 0 1 0 6.76 0 a3.38 3.38 0 1 0 -6.76 0zM847.12 634.5 a3.38 3.38 0 1 0 6.76 0 a3.38 3.38 0 1 0 -6.76 0z" fill="black"></path><path d="M1117.12 283.5 a3.38 3.38 0 1 0 6.76 0 a3.38 3.38 0 1 0 -6.76 0zM982.12 418.5 a3.38 3.38 0 1 0 6.76 0 a3.38 3.38 0 1 0 -6.76 0z" fill="black"></path><path d="M1090.12 985.5 a3.38 3.38 0 1 0 6.76 0 a3.38 3.38 0 1 0 -6.76 0zM1198.12 985.5 a3.38 3.38 0 1 0 6.76 0 a3.38 3.38 0 1 0 -6.76 0z" fill="black"></path><path d="M1306.12 391.5 a3.38 3.38 0 1 0 6.76 0 a3.38 3.38 0 1 0 -6.76 0zM1387.12 391.5 a3.38 3.38 0 1 0 6.76 0 a3.38 3.38 0 1 0 -6.76 0z" fill="black"></path><path d="M577.12 931.5 a3.38 3.38 0 1 0 6.76 0 a3.38 3.38 0 1 0 -6.76 0zM577.12 985.5 a3.38 3.38 0 1 0 6.76 0 a3.38 3.38 0 1 0 -6.76 0z" fill="black"></path><path d="M1171.12 877.5 a3.38 3.38 0 1 0 6.76 0 a3.38 3.38 0 1 0 -6.76 0zM1306.12 985.5 a3.38 3.38 0 1 0 6.76 0 a3.38 3.38 0 1 0 -6.76 0z" fill="black"></path><path d="M658.12 580.5 a3.38 3.38 0 1 0 6.76 0 a3.38 3.38 0 1 0 -6.76 0zM658.12 499.5 a3.38 3.38 0 1 0 6.76 0 a3.38 3.38 0 1 0 -6.76 0z" fill="black"></path><path d="M91.12 337.5 a3.38 3.38 0 1 0 6.76 0 a3.38 3.38 0 1 0 -6.76 0zM91.12 283.5 a3.38 3.38 0 1 0 6.76 0 a3.38 3.38 0 1 0 -6.76 0z" fill="black"></path><path d="M631.12 931.5 a3.38 3.38 0 1 0 6.76 0 a3.38 3.38 0 1 0 -6.76 0zM523.12 823.5 a3.38 3.38 0 1 0 6.76 0 a3.38 3.38 0 1 0 -6.76 0z" fill="black"></path><path d="M955.12 715.5 a3.38 3.38 0 1 0 6.76 0 a3.38 3.38 0 1 0 -6.76 0zM955.12 796.5 a3.38 3.38 0 1 0 6.76 0 a3.38 3.38 0 1 0 -6.76 0z" fill="black"></path><path d="M604.12 931.5 a3.38 3.38 0 1 0 6.76 0 a3.38 3.38 0 1 0 -6.76 0zM577.12 877.5 a3.38 3.38 0 1 0 6.76 0 a3.38 3.38 0 1 0 -6.76 0z" fill="black"></path><path d="M361.12 175.5 a3.38 3.38 0 1 0 6.76 0 a3.38 3.38 0 1 0 -6.76 0zM415.12 40.5 a3.38 3.38 0 1 0 6.76 0 a3.38 3.38 0 1 0 -6.76 0z" fill="black"></path><path d="M982.12 742.5 a3.38 3.38 0 1 0 6.76 0 a3.38 3.38 0 1 0 -6.76 0zM1036.12 688.5 a3.38 3.38 0 1 0 6.76 0 a3.38 3.38 0 1 0 -6.76 0z" fill="black"></path><path d="M253.12 67.5 a3.38 3.38 0 1 0 6.76 0 a3.38 3.38 0 1 0 -6.76 0zM253.12 256.5 a3.38 3.38 0 1 0 6.76 0 a3.38 3.38 0 1 0 -6.76 0z" fill="black"></path><path d="M766.12 13.5 a3.38 3.38 0 1 0 6.76 0 a3.38 3.38 0 1 0 -6.76 0zM658.12 13.5 a3.38 3.38 0 1 0 6.76 0 a3.38 3.38 0 1 0 -6.76 0z" fill="black"></path><path d="M280.12 526.5 a3.38 3.38 0 1 0 6.76 0 a3.38 3.38 0 1 0 -6.76 0zM226.12 526.5 a3.38 3.38 0 1 0 6.76 0 a3.38 3.38 0 1 0 -6.76 0z" fill="black"></path><path d="M847.12 985.5 a3.38 3.38 0 1 0 6.76 0 a3.38 3.38 0 1 0 -6.76 0zM847.12 931.5 a3.38 3.38 0 1 0 6.76 0 a3.38 3.38 0 1 0 -6.76 0z" fill="black"></path><path d="M766.12 175.5 a3.38 3.38 0 1 0 6.76 0 a3.38 3.38 0 1 0 -6.76 0zM685.12 229.5 a3.38 3.38 0 1 0 6.76 0 a3.38 3.38 0 1 0 -6.76 0z" fill="black"></path><path d="M1279.12 553.5 a3.38 3.38 0 1 0 6.76 0 a3.38 3.38 0 1 0 -6.76 0zM1441.12 472.5 a3.38 3.38 0 1 0 6.76 0 a3.38 3.38 0 1 0 -6.76 0z" fill="black"></path><path d="M388.12 904.5 a3.38 3.38 0 1 0 6.76 0 a3.38 3.38 0 1 0 -6.76 0zM226.12 985.5 a3.38 3.38 0 1 0 6.76 0 a3.38 3.38 0 1 0 -6.76 0z" fill="black"></path><path d="M1144.12 94.5 a3.38 3.38 0 1 0 6.76 0 a3.38 3.38 0 1 0 -6.76 0zM1198.12 94.5 a3.38 3.38 0 1 0 6.76 0 a3.38 3.38 0 1 0 -6.76 0z" fill="black"></path><path d="M1090.12 661.5 a3.38 3.38 0 1 0 6.76 0 a3.38 3.38 0 1 0 -6.76 0zM1090.12 850.5 a3.38 3.38 0 1 0 6.76 0 a3.38 3.38 0 1 0 -6.76 0z" fill="black"></path><path d="M739.12 67.5 a3.38 3.38 0 1 0 6.76 0 a3.38 3.38 0 1 0 -6.76 0zM847.12 13.5 a3.38 3.38 0 1 0 6.76 0 a3.38 3.38 0 1 0 -6.76 0z" fill="black"></path><path d="M172.12 877.5 a3.38 3.38 0 1 0 6.76 0 a3.38 3.38 0 1 0 -6.76 0zM64.12 904.5 a3.38 3.38 0 1 0 6.76 0 a3.38 3.38 0 1 0 -6.76 0z" fill="black"></path><path d="M388.12 877.5 a3.38 3.38 0 1 0 6.76 0 a3.38 3.38 0 1 0 -6.76 0zM334.12 985.5 a3.38 3.38 0 1 0 6.76 0 a3.38 3.38 0 1 0 -6.76 0z" fill="black"></path><path d="M145.12 148.5 a3.38 3.38 0 1 0 6.76 0 a3.38 3.38 0 1 0 -6.76 0zM91.12 67.5 a3.38 3.38 0 1 0 6.76 0 a3.38 3.38 0 1 0 -6.76 0z" fill="black"></path><path d="M496.12 310.5 a3.38 3.38 0 1 0 6.76 0 a3.38 3.38 0 1 0 -6.76 0zM388.12 364.5 a3.38 3.38 0 1 0 6.76 0 a3.38 3.38 0 1 0 -6.76 0z" fill="black"></path><path d="M1090.12 364.5 a3.38 3.38 0 1 0 6.76 0 a3.38 3.38 0 1 0 -6.76 0zM1144.12 337.5 a3.38 3.38 0 1 0 6.76 0 a3.38 3.38 0 1 0 -6.76 0z" fill="black"></path><path d="M91.12 445.5 a3.38 3.38 0 1 0 6.76 0 a3.38 3.38 0 1 0 -6.76 0zM91.12 364.5 a3.38 3.38 0 1 0 6.76 0 a3.38 3.38 0 1 0 -6.76 0z" fill="black"></path><path d="M64.12 742.5 a3.38 3.38 0 1 0 6.76 0 a3.38 3.38 0 1 0 -6.76 0zM64.12 796.5 a3.38 3.38 0 1 0 6.76 0 a3.38 3.38 0 1 0 -6.76 0z" fill="black"></path><path d="M145.12 742.5 a3.38 3.38 0 1 0 6.76 0 a3.38 3.38 0 1 0 -6.76 0zM199.12 796.5 a3.38 3.38 0 1 0 6.76 0 a3.38 3.38 0 1 0 -6.76 0z" fill="black"></path><path d="M712.12 553.5 a3.38 3.38 0 1 0 6.76 0 a3.38 3.38 0 1 0 -6.76 0zM712.12 472.5 a3.38 3.38 0 1 0 6.76 0 a3.38 3.38 0 1 0 -6.76 0z" fill="black"></path><path d="M1090.12 229.5 a3.38 3.38 0 1 0 6.76 0 a3.38 3.38 0 1 0 -6.76 0zM1009.12 283.5 a3.38 3.38 0 1 0 6.76 0 a3.38 3.38 0 1 0 -6.76 0z" fill="black"></path><path d="M1387.12 904.5 a3.38 3.38 0 1 0 6.76 0 a3.38 3.38 0 1 0 -6.76 0zM1441.12 715.5 a3.38 3.38 0 1 0 6.76 0 a3.38 3.38 0 1 0 -6.76 0z" fill="black"></path><path d="M1387.12 850.5 a3.38 3.38 0 1 0 6.76 0 a3.38 3.38 0 1 0 -6.76 0zM1414.12 742.5 a3.38 3.38 0 1 0 6.76 0 a3.38 3.38 0 1 0 -6.76 0z" fill="black"></path><path d="M631.12 364.5 a3.38 3.38 0 1 0 6.76 0 a3.38 3.38 0 1 0 -6.76 0zM523.12 364.5 a3.38 3.38 0 1 0 6.76 0 a3.38 3.38 0 1 0 -6.76 0z" fill="black"></path><path d="M739.12 904.5 a3.38 3.38 0 1 0 6.76 0 a3.38 3.38 0 1 0 -6.76 0zM739.12 850.5 a3.38 3.38 0 1 0 6.76 0 a3.38 3.38 0 1 0 -6.76 0z" fill="black"></path><path d="M1225.12 391.5 a3.38 3.38 0 1 0 6.76 0 a3.38 3.38 0 1 0 -6.76 0zM1171.12 391.5 a3.38 3.38 0 1 0 6.76 0 a3.38 3.38 0 1 0 -6.76 0z" fill="black"></path><path d="M1333.12 688.5 a3.38 3.38 0 1 0 6.76 0 a3.38 3.38 0 1 0 -6.76 0zM1387.12 688.5 a3.38 3.38 0 1 0 6.76 0 a3.38 3.38 0 1 0 -6.76 0z" fill="black"></path><path d="M1414.12 931.5 a3.38 3.38 0 1 0 6.76 0 a3.38 3.38 0 1 0 -6.76 0zM1441.12 877.5 a3.38 3.38 0 1 0 6.76 0 a3.38 3.38 0 1 0 -6.76 0z" fill="black"></path><path d="M523.12 661.5 a3.38 3.38 0 1 0 6.76 0 a3.38 3.38 0 1 0 -6.76 0zM469.12 661.5 a3.38 3.38 0 1 0 6.76 0 a3.38 3.38 0 1 0 -6.76 0z" fill="black"></path><path d="M982.12 904.5 a3.38 3.38 0 1 0 6.76 0 a3.38 3.38 0 1 0 -6.76 0zM928.12 877.5 a3.38 3.38 0 1 0 6.76 0 a3.38 3.38 0 1 0 -6.76 0z" fill="black"></path><path d="M604.12 472.5 a3.38 3.38 0 1 0 6.76 0 a3.38 3.38 0 1 0 -6.76 0zM631.12 418.5 a3.38 3.38 0 1 0 6.76 0 a3.38 3.38 0 1 0 -6.76 0z" fill="black"></path><path d="M766.12 688.5 a3.38 3.38 0 1 0 6.76 0 a3.38 3.38 0 1 0 -6.76 0zM712.12 634.5 a3.38 3.38 0 1 0 6.76 0 a3.38 3.38 0 1 0 -6.76 0z" fill="black"></path><path d="M1333.12 526.5 a3.38 3.38 0 1 0 6.76 0 a3.38 3.38 0 1 0 -6.76 0zM1225.12 580.5 a3.38 3.38 0 1 0 6.76 0 a3.38 3.38 0 1 0 -6.76 0z" fill="black"></path><path d="M91.12 850.5 a3.38 3.38 0 1 0 6.76 0 a3.38 3.38 0 1 0 -6.76 0zM37.12 850.5 a3.38 3.38 0 1 0 6.76 0 a3.38 3.38 0 1 0 -6.76 0z" fill="black"></path><path d="M631.12 283.5 a3.38 3.38 0 1 0 6.76 0 a3.38 3.38 0 1 0 -6.76 0zM577.12 337.5 a3.38 3.38 0 1 0 6.76 0 a3.38 3.38 0 1 0 -6.76 0z" fill="black"></path><path d="M1414.12 499.5 a3.38 3.38 0 1 0 6.76 0 a3.38 3.38 0 1 0 -6.76 0zM1360.12 553.5 a3.38 3.38 0 1 0 6.76 0 a3.38 3.38 0 1 0 -6.76 0z" fill="black"></path><path d="M415.12 715.5 a3.38 3.38 0 1 0 6.76 0 a3.38 3.38 0 1 0 -6.76 0zM469.12 742.5 a3.38 3.38 0 1 0 6.76 0 a3.38 3.38 0 1 0 -6.76 0z" fill="black"></path><path d="M874.12 67.5 a3.38 3.38 0 1 0 6.76 0 a3.38 3.38 0 1 0 -6.76 0zM766.12 148.5 a3.38 3.38 0 1 0 6.76 0 a3.38 3.38 0 1 0 -6.76 0z" fill="black"></path><path d="M1387.12 121.5 a3.38 3.38 0 1 0 6.76 0 a3.38 3.38 0 1 0 -6.76 0zM1387.12 310.5 a3.38 3.38 0 1 0 6.76 0 a3.38 3.38 0 1 0 -6.76 0z" fill="black"></path><path d="M10.12 985.5 a3.38 3.38 0 1 0 6.76 0 a3.38 3.38 0 1 0 -6.76 0zM64.12 1012.5 a3.38 3.38 0 1 0 6.76 0 a3.38 3.38 0 1 0 -6.76 0z" fill="black"></path><path d="M1333.12 283.5 a3.38 3.38 0 1 0 6.76 0 a3.38 3.38 0 1 0 -6.76 0zM1360.12 148.5 a3.38 3.38 0 1 0 6.76 0 a3.38 3.38 0 1 0 -6.76 0z" fill="black"></path><path d="M1036.12 121.5 a3.38 3.38 0 1 0 6.76 0 a3.38 3.38 0 1 0 -6.76 0zM1009.12 175.5 a3.38 3.38 0 1 0 6.76 0 a3.38 3.38 0 1 0 -6.76 0z" fill="black"></path><path d="M739.12 688.5 a3.38 3.38 0 1 0 6.76 0 a3.38 3.38 0 1 0 -6.76 0zM739.12 742.5 a3.38 3.38 0 1 0 6.76 0 a3.38 3.38 0 1 0 -6.76 0z" fill="black"></path><path d="M604.12 418.5 a3.38 3.38 0 1 0 6.76 0 a3.38 3.38 0 1 0 -6.76 0zM550.12 472.5 a3.38 3.38 0 1 0 6.76 0 a3.38 3.38 0 1 0 -6.76 0z" fill="black"></path><path d="M658.12 931.5 a3.38 3.38 0 1 0 6.76 0 a3.38 3.38 0 1 0 -6.76 0zM604.12 985.5 a3.38 3.38 0 1 0 6.76 0 a3.38 3.38 0 1 0 -6.76 0z" fill="black"></path><path d="M901.12 553.5 a3.38 3.38 0 1 0 6.76 0 a3.38 3.38 0 1 0 -6.76 0zM901.12 499.5 a3.38 3.38 0 1 0 6.76 0 a3.38 3.38 0 1 0 -6.76 0z" fill="black"></path><path d="M658.12 607.5 a3.38 3.38 0 1 0 6.76 0 a3.38 3.38 0 1 0 -6.76 0zM604.12 553.5 a3.38 3.38 0 1 0 6.76 0 a3.38 3.38 0 1 0 -6.76 0z" fill="black"></path><path d="M739.12 499.5 a3.38 3.38 0 1 0 6.76 0 a3.38 3.38 0 1 0 -6.76 0zM739.12 553.5 a3.38 3.38 0 1 0 6.76 0 a3.38 3.38 0 1 0 -6.76 0z" fill="black"></path><path d="M523.12 148.5 a3.38 3.38 0 1 0 6.76 0 a3.38 3.38 0 1 0 -6.76 0zM523.12 202.5 a3.38 3.38 0 1 0 6.76 0 a3.38 3.38 0 1 0 -6.76 0z" fill="black"></path><path d="M523.12 580.5 a3.38 3.38 0 1 0 6.76 0 a3.38 3.38 0 1 0 -6.76 0zM523.12 526.5 a3.38 3.38 0 1 0 6.76 0 a3.38 3.38 0 1 0 -6.76 0z" fill="black"></path><path d="M415.12 67.5 a3.38 3.38 0 1 0 6.76 0 a3.38 3.38 0 1 0 -6.76 0zM415.12 121.5 a3.38 3.38 0 1 0 6.76 0 a3.38 3.38 0 1 0 -6.76 0z" fill="black"></path><path d="M1036.12 877.5 a3.38 3.38 0 1 0 6.76 0 a3.38 3.38 0 1 0 -6.76 0zM982.12 877.5 a3.38 3.38 0 1 0 6.76 0 a3.38 3.38 0 1 0 -6.76 0z" fill="black"></path><path d="M334.12 580.5 a3.38 3.38 0 1 0 6.76 0 a3.38 3.38 0 1 0 -6.76 0zM388.12 526.5 a3.38 3.38 0 1 0 6.76 0 a3.38 3.38 0 1 0 -6.76 0z" fill="black"></path><path d="M577.12 94.5 a3.38 3.38 0 1 0 6.76 0 a3.38 3.38 0 1 0 -6.76 0zM523.12 94.5 a3.38 3.38 0 1 0 6.76 0 a3.38 3.38 0 1 0 -6.76 0z" fill="black"></path><path d="M37.12 337.5 a3.38 3.38 0 1 0 6.76 0 a3.38 3.38 0 1 0 -6.76 0zM37.12 391.5 a3.38 3.38 0 1 0 6.76 0 a3.38 3.38 0 1 0 -6.76 0z" fill="black"></path></mask></defs></svg>